<svg width="100" height="100" viewBox="0 0 100 100" fill="none" xmlns="http://www.w3.org/2000/svg">
<path d="M50 100C77.6142 100 100 77.6142 100 50C100 22.3858 77.6142 0 50 0C22.3858 0 0 22.3858 0 50C0 77.6142 22.3858 100 50 100Z" fill="#EDEDED"/>
<path d="M17.254 14.79C18.979 14.79 34.508 14.667 34.508 9.86V4.93C34.508 0.123001 18.979 6.2561e-07 17.254 6.2561e-07C15.529 6.2561e-07 8.41752e-07 0.123001 8.41752e-07 4.93V9.86C-0.000999158 14.667 15.528 14.79 17.254 14.79ZM2.464 9.737V7.765C2.834 7.888 3.203 8.135 3.696 8.258V10.6C3.081 10.23 2.588 9.983 2.464 9.737ZM14.789 9.86V12.325C13.433 12.325 12.201 12.202 11.092 12.079V9.614C12.447 9.737 13.68 9.737 14.789 9.86ZM8.627 11.709C7.764 11.586 6.902 11.463 6.162 11.216V8.874C6.901 8.997 7.764 9.12 8.627 9.244V11.709ZM17.254 12.325V9.86C18.61 9.86 27.606 9.737 32.043 7.765V9.86C31.427 10.723 26.004 12.325 17.254 12.325ZM18.856 2.466C18.979 2.466 19.226 2.466 19.349 2.466C19.719 2.466 19.965 2.466 20.335 2.466C20.581 2.466 20.705 2.466 20.951 2.466C21.197 2.466 21.567 2.466 21.814 2.466C22.06 2.466 22.184 2.466 22.43 2.466C22.676 2.466 22.923 2.466 23.169 2.466C23.415 2.466 23.539 2.466 23.785 2.466C24.031 2.466 24.278 2.466 24.524 2.589C24.77 2.589 24.894 2.589 25.017 2.712C25.263 2.712 25.387 2.712 25.633 2.835C25.756 2.835 26.003 2.835 26.126 2.958C26.372 2.958 26.496 2.958 26.742 3.081C26.865 3.081 27.112 3.081 27.235 3.204C27.358 3.204 27.605 3.327 27.728 3.327C27.851 3.327 27.974 3.45 28.221 3.45C28.344 3.45 28.591 3.573 28.714 3.573C28.837 3.573 28.96 3.696 29.084 3.696C29.208 3.696 29.33 3.819 29.454 3.819C29.578 3.819 29.7 3.942 29.824 3.942C29.948 3.942 30.07 4.065 30.194 4.065C30.317 4.065 30.44 4.188 30.44 4.188C30.563 4.188 30.686 4.311 30.686 4.311C30.809 4.311 30.809 4.434 30.932 4.434C31.055 4.434 31.055 4.557 31.178 4.557C31.301 4.557 31.301 4.68 31.424 4.68C31.547 4.68 31.547 4.803 31.67 4.803L31.793 4.926L31.916 5.049L32.039 5.172C31.176 6.158 25.877 7.637 17.373 7.637C8.869 7.637 3.57 6.158 2.707 5.172C2.707 5.172 2.83 5.172 2.83 5.049L2.953 4.926C2.953 4.926 3.076 4.926 3.076 4.803C3.076 4.803 3.199 4.68 3.322 4.68C3.445 4.68 3.445 4.557 3.568 4.557C3.691 4.557 3.691 4.434 3.814 4.434C3.937 4.434 3.937 4.311 4.06 4.311C4.183 4.311 4.306 4.188 4.43 4.188C4.554 4.188 4.676 4.065 4.676 4.065C4.799 4.065 4.922 3.942 5.046 3.942C5.169 3.942 5.292 3.819 5.416 3.819C5.293 3.696 5.539 3.696 5.662 3.696C5.785 3.696 5.908 3.573 6.032 3.573C6.156 3.573 6.278 3.45 6.525 3.45C6.648 3.45 6.771 3.327 7.018 3.327C7.141 3.327 7.388 3.204 7.511 3.204C7.634 3.204 7.881 3.204 8.004 3.081C8.127 3.081 8.374 3.081 8.62 2.958C8.743 2.958 8.99 2.958 9.113 2.835C9.359 2.835 9.483 2.835 9.729 2.712C9.852 2.712 10.099 2.712 10.222 2.589C10.468 2.589 10.715 2.589 10.961 2.466C11.207 2.466 11.331 2.466 11.577 2.466C11.823 2.466 12.07 2.466 12.316 2.466C12.562 2.466 12.686 2.466 12.932 2.466C13.178 2.466 13.425 2.466 13.795 2.466C14.041 2.466 14.165 2.466 14.411 2.466C14.781 2.466 15.027 2.466 15.397 2.466C15.52 2.466 15.767 2.466 15.89 2.466C16.383 2.466 16.876 2.466 17.492 2.466C18.116 2.466 18.363 2.466 18.856 2.466Z" transform="translate(32.6929 21.5439)" fill="#323648"/>
<path d="M8.18581 16.7159C12.7458 16.7159 17.9218 15.7299 18.9078 15.6069C20.6328 15.2369 35.7918 12.1559 34.9298 7.47291L33.9438 2.66591C32.9578 -2.01709 17.7988 0.816908 16.0738 1.18691C13.3628 1.67991 10.8978 2.41891 8.55581 3.15891C7.19981 3.65191 5.96781 4.02191 4.85881 4.51491C1.28481 6.11691 -0.317189 7.71891 0.0518111 9.32191L1.03781 14.1289C1.40781 16.0989 4.61181 16.7159 8.18581 16.7159ZM3.00981 11.5389C3.37981 11.6619 3.87281 11.6619 4.36581 11.7849L4.85881 14.0029C4.11981 13.8799 3.74981 13.7569 3.50281 13.5099L3.00981 11.5389ZM2.63981 8.58191L2.76281 8.45891L2.88581 8.33591L3.00881 8.21291L3.13181 8.08991C3.25481 8.08991 3.25481 7.96691 3.37781 7.96691C3.50081 7.96691 3.50081 7.84391 3.62381 7.84391C3.74681 7.84391 3.74681 7.72091 3.86981 7.72091C3.99281 7.72091 3.99281 7.59791 4.11581 7.59791C4.23881 7.59791 4.36181 7.47491 4.48581 7.47491C4.60881 7.47491 4.73181 7.35191 4.85581 7.35191C4.97881 7.35191 5.10181 7.22891 5.22581 7.22891C5.34881 7.22891 5.47181 7.10591 5.59581 7.10591C5.71881 7.10591 5.84181 6.98291 5.96581 6.98291C6.08981 6.98291 6.21181 6.85991 6.33581 6.85991C6.45881 6.73691 6.70581 6.73691 6.82881 6.61391C6.95181 6.49091 7.07481 6.49091 7.32181 6.36791C7.44481 6.24491 7.69181 6.24491 7.81481 6.12191C7.93781 5.99891 8.18481 5.99891 8.30781 5.87591C8.43081 5.75291 8.67781 5.75291 8.80081 5.62991C9.04681 5.50691 9.17081 5.50691 9.41681 5.38391C9.66281 5.38391 9.78681 5.26091 10.0328 5.26091C10.2788 5.13791 10.4028 5.13791 10.6488 5.01491C10.8948 5.01491 11.0188 4.89191 11.2648 4.89191C11.5108 4.76891 11.7578 4.76891 12.0038 4.64591C12.2498 4.64591 12.3738 4.52291 12.6198 4.52291C12.8658 4.39991 13.1128 4.39991 13.3588 4.27691C13.4818 4.27691 13.7288 4.15391 13.8518 4.15391C14.0978 4.03091 14.4678 4.03091 14.7148 3.90791H14.8378C15.3308 3.78491 15.7008 3.66191 16.1938 3.66191C16.6868 3.53891 17.3028 3.41591 17.7958 3.41591C17.9188 3.41591 18.0418 3.41591 18.1658 3.41591C18.5358 3.29291 18.9048 3.29291 19.2748 3.29291C19.3978 3.29291 19.5208 3.29291 19.7678 3.16991C20.1378 3.16991 20.3838 3.04691 20.7538 3.04691C20.8768 3.04691 21.1238 3.04691 21.2468 3.04691C21.4928 3.04691 21.8628 2.92391 22.1098 2.92391C22.2328 2.92391 22.3558 2.92391 22.6028 2.92391C22.8498 2.92391 23.0958 2.92391 23.4658 2.80091C23.5888 2.80091 23.7118 2.80091 23.9588 2.80091C24.2048 2.80091 24.4518 2.80091 24.6978 2.80091C24.8208 2.80091 24.9438 2.80091 25.0678 2.80091C25.3138 2.80091 25.5608 2.80091 25.6838 2.80091C25.8068 2.80091 25.9298 2.80091 26.0538 2.80091C26.2998 2.80091 26.4238 2.80091 26.6698 2.80091C26.7928 2.80091 26.9158 2.80091 27.0398 2.80091C27.1628 2.80091 27.4098 2.80091 27.5328 2.80091C27.6558 2.80091 27.7788 2.80091 27.9028 2.80091C28.0268 2.80091 28.2728 2.80091 28.3958 2.80091C28.5188 2.80091 28.6418 2.80091 28.7658 2.80091C28.8898 2.80091 29.0118 2.80091 29.1358 2.80091C29.2588 2.80091 29.3818 2.80091 29.3818 2.80091C29.5048 2.80091 29.6278 2.80091 29.7518 2.80091C29.8758 2.80091 29.8748 2.80091 29.9978 2.80091C30.1208 2.80091 30.2438 2.80091 30.2438 2.80091C30.3668 2.80091 30.3668 2.80091 30.4898 2.80091C30.6128 2.80091 30.6128 2.80091 30.7358 2.92391H30.8588C30.8588 2.92391 30.9818 2.92391 30.9818 3.04691C30.9818 3.04691 31.1048 3.04691 31.1048 3.16991C31.1048 3.16991 31.1048 3.16991 31.2278 3.16991C30.4888 4.27891 25.6818 6.74391 17.3008 8.46891C8.91981 10.0709 3.49781 9.70091 2.38781 8.83891C2.51681 8.70491 2.51681 8.70491 2.63981 8.58191C2.63981 8.70491 2.63981 8.58191 2.63981 8.58191ZM15.4578 11.1699L15.9508 13.6349C14.5948 13.8809 13.3628 14.0049 12.2538 14.1279L11.7608 11.6629C13.1158 11.5389 14.4718 11.2929 15.4578 11.1699ZM7.32381 14.2509L6.83081 11.9089C6.95381 11.9089 7.07681 11.9089 7.20081 11.9089C7.93981 11.9089 8.67981 11.9089 9.29581 11.7859L9.78881 14.1279C8.92581 14.2509 8.06281 14.2509 7.32381 14.2509ZM18.4158 13.1419L17.9228 10.6769C19.2788 10.4309 28.0288 8.58191 31.9728 5.74691L32.3428 7.71891C31.9718 8.82791 27.0428 11.4159 18.4158 13.1419Z" transform="translate(32.5171 36.626)" fill="#323648"/>
<path d="M20.1431 5.66777C16.3221 3.44977 12.6251 1.72377 9.54414 0.737773C5.84714 -0.371226 3.62814 -0.248227 2.76614 1.23077L0.301142 5.54477C-2.16386 9.73477 11.2701 17.6228 12.7491 18.4858C16.5701 20.7038 20.2671 22.4298 23.3481 23.4158C24.9501 23.9088 26.3061 24.1548 27.4151 24.1548C28.7711 24.1548 29.6331 23.7848 30.1261 22.9228L32.5911 18.6088C35.0551 14.4178 21.7451 6.52977 20.1431 5.66777ZM20.2661 8.62577C20.3891 8.74877 20.5121 8.87177 20.7591 8.87177C21.0051 8.99477 21.3751 9.24177 21.6221 9.36477C21.7451 9.48777 21.9921 9.61078 22.1151 9.73478C22.3611 9.85778 22.6081 9.98077 22.8541 10.2278C22.9771 10.3508 23.2241 10.4738 23.3471 10.5978C23.5931 10.7208 23.7171 10.8438 23.9631 10.9678C24.0861 11.0908 24.2091 11.2138 24.4561 11.3378C24.7021 11.4608 24.8261 11.5838 25.0721 11.7078C25.1951 11.8308 25.3181 11.9538 25.4421 12.0778C25.5651 12.2008 25.8121 12.3238 25.9351 12.4478C26.0581 12.5708 26.1811 12.6938 26.3051 12.6938C26.4281 12.8168 26.6751 12.9398 26.7981 13.0638C26.9211 13.1868 27.0441 13.3098 27.1681 13.3098C27.2911 13.4328 27.4141 13.5558 27.5381 13.6798C27.6611 13.8028 27.7841 13.8028 27.7841 13.9258C27.9071 14.0488 28.0301 14.1718 28.1541 14.2958C28.2771 14.4188 28.2771 14.4188 28.4001 14.5418C28.5231 14.6648 28.6461 14.7878 28.7701 14.9118C28.8931 15.0348 28.8931 15.0348 29.0161 15.1578C29.1391 15.2808 29.2621 15.4038 29.2621 15.5278C29.3851 15.6508 29.3851 15.6508 29.3851 15.7738C29.5081 15.8968 29.5081 16.0198 29.6311 16.0198C29.6311 16.1428 29.7541 16.1428 29.7541 16.1428C29.8771 16.2658 29.8771 16.2658 30.0001 16.3888L30.1231 16.5118C30.1231 16.6348 30.2461 16.6348 30.2461 16.7578C30.2461 16.7578 30.2461 16.8808 30.3691 16.8808C30.3691 17.0038 30.4921 17.0038 30.4921 17.0038V17.1268C30.4921 17.1268 30.4921 17.1268 30.4921 17.2498C29.2601 17.6198 23.9601 16.2638 16.5651 11.9508C9.17015 7.63677 5.35014 3.69377 5.10314 2.46077C5.10314 2.46077 5.10315 2.46077 5.22615 2.46077H5.34914C5.47214 2.46077 5.47214 2.46077 5.59514 2.46077C5.59514 2.46077 5.59515 2.46077 5.71815 2.46077C5.84115 2.46077 5.96414 2.46077 6.08814 2.46077C8.18314 2.70677 12.9901 4.18577 19.1521 7.75977C19.4041 8.13277 19.8961 8.37877 20.2661 8.62577ZM6.09315 7.76277C6.70915 8.25577 7.32515 8.87177 8.06515 9.36477L6.83314 11.4598C6.09414 10.8438 5.47714 10.3508 4.98414 9.85777L6.09315 7.76277ZM10.0371 10.8438C11.0231 11.5828 12.0091 12.1998 13.1181 12.9388L11.8861 15.0338C10.7771 14.2948 9.79114 13.6778 8.80514 12.9388L10.0371 10.8438ZM3.50514 4.92777C3.75114 5.29777 3.99814 5.54377 4.36814 5.91377L3.25914 7.88577C2.76614 7.26977 2.64314 6.89977 2.52014 6.65377L3.50514 4.92777ZM13.9811 16.3898C13.9811 16.2668 13.8581 16.2668 13.9811 16.3898L15.2131 14.2948C19.0341 16.5128 22.7311 18.2388 25.8121 19.1018C27.0441 19.4718 28.1541 19.7178 29.0161 19.8408L28.0301 21.5658C27.0451 22.0588 21.6221 20.7028 13.9811 16.3898Z" transform="translate(33.501 56.3013)" fill="#323648"/>
</svg>
