<svg width="58" height="55" viewBox="0 0 58 55" fill="none" xmlns="http://www.w3.org/2000/svg">
<path d="M55.9831 39.0127H55.7204V15.9863H55.9831C57.0955 15.9863 58 15.0936 58 13.9955C58 12.8975 57.0955 12.0037 55.9831 12.0037H55.7204V4.99223C55.7204 2.23929 53.4518 0 50.6628 0H5.05762C2.26862 0 0 2.23929 0 4.99223V50.0078C0 52.7607 2.26862 55 5.05762 55H50.6628C53.4518 55 55.7204 52.7607 55.7204 50.0078V42.9953H55.9831C57.0955 42.9953 58 42.1025 58 41.0045C58 39.9064 57.0955 39.0127 55.9831 39.0127ZM49.4041 13.9955C49.4041 15.0936 50.3096 15.9863 51.422 15.9863H51.6847V39.0117H51.422C50.3096 39.0117 49.4041 39.9054 49.4041 41.0035C49.4041 42.1015 50.3096 42.9943 51.422 42.9943H51.6847V50.0068C51.6847 50.5627 51.226 51.0154 50.6628 51.0154H5.05762C4.49445 51.0154 4.03575 50.5627 4.03575 50.0068V4.99223C4.03575 4.43634 4.49445 3.98357 5.05762 3.98357H50.6628C51.226 3.98357 51.6847 4.43634 51.6847 4.99223V12.0037H51.422C50.3106 12.0037 49.4041 12.8975 49.4041 13.9955Z" fill="#D6D7DA"/>
<path d="M2.01688 2.39781e-07C0.904463 2.39781e-07 -6.07305e-08 0.892768 -6.07305e-08 1.9908V6.49295C-6.07305e-08 7.59098 0.904463 8.48375 2.01688 8.48375C3.1293 8.48375 4.03476 7.59098 4.03476 6.49295V1.9908C4.03476 0.893751 3.1293 2.39781e-07 2.01688 2.39781e-07Z" transform="translate(7.60059 24.0074)" fill="#D6D7DA"/>
<path d="M14.1789 0C6.36109 0 4.25113e-07 6.27884 4.25113e-07 13.9955C4.25113e-07 21.7122 6.36109 27.9911 14.1789 27.9911C21.9966 27.9911 28.3577 21.7122 28.3577 13.9955C28.3577 6.27884 21.9976 0 14.1789 0ZM12.161 20.955V23.7954C10.8894 23.54 9.67148 23.0401 8.58791 22.331L10.6227 20.3225C11.1103 20.5916 11.6257 20.8028 12.161 20.955ZM12.161 7.03607C11.6267 7.18732 11.1113 7.39946 10.6227 7.66955L8.58791 5.66009C9.67247 4.95 10.8894 4.45107 12.161 4.19571V7.03607ZM22.6245 8.47589C23.3429 9.54545 23.8483 10.7476 24.107 12.0037H21.2295C21.0763 11.4763 20.8613 10.9676 20.5877 10.4854L22.6245 8.47589ZM20.5887 17.5047C20.8613 17.0235 21.0763 16.5147 21.2305 15.9863H24.109C23.8493 17.2425 23.3439 18.4446 22.6255 19.5142L20.5887 17.5047ZM19.7698 5.66009L17.735 7.66857C17.2455 7.40045 16.7301 7.1883 16.1957 7.03607V4.19473C17.4694 4.45009 18.6872 4.94902 19.7698 5.66009ZM16.1967 20.955C16.7321 20.8037 17.2475 20.5916 17.736 20.3215L19.7708 22.33C18.6862 23.0411 17.4694 23.54 16.1967 23.7954V20.955ZM17.4823 13.9955C17.4823 15.7929 16.0007 17.2553 14.1799 17.2553C12.359 17.2553 10.8764 15.7929 10.8764 13.9955C10.8764 12.1982 12.358 10.7358 14.1789 10.7358C15.9997 10.7358 17.4823 12.1982 17.4823 13.9955ZM7.77002 17.5047L5.73423 19.5132C5.01484 18.4427 4.51037 17.2415 4.25167 15.9863H7.12923C7.28246 16.5138 7.49738 17.0225 7.77002 17.5047ZM4.25167 12.0037C4.51037 10.7496 5.01584 9.54741 5.73423 8.47688L7.77002 10.4854C7.49738 10.9676 7.28246 11.4763 7.12824 12.0037H4.25167Z" transform="translate(15.2012 13.5045)" fill="#D6D7DA"/>
</svg>
