<svg width="49" height="55" viewBox="0 0 49 55" fill="none" xmlns="http://www.w3.org/2000/svg">
<path d="M24.7938 0.194C26.0288 0.973 27.2998 1.699 28.6088 2.357C32.1628 4.148 35.9458 5.481 39.8248 6.406C42.8388 7.129 45.9108 7.59 48.9988 7.857C48.9958 8.445 48.9888 9.031 48.9798 9.619C48.9188 12.441 48.7678 15.262 48.4748 18.071C48.2528 20.18 47.9598 22.28 47.5778 24.366C47.2788 26.011 46.9218 27.649 46.5038 29.268C46.1858 30.502 45.8288 31.73 45.4298 32.942C45.0948 33.963 44.7318 34.971 44.3358 35.97C42.1968 41.352 39.0538 46.506 34.4838 50.205C33.9048 50.673 33.3068 51.118 32.6888 51.531C31.7688 52.148 30.8038 52.702 29.8038 53.182C28.6878 53.723 27.5268 54.171 26.3328 54.528C25.7278 54.709 25.1138 54.862 24.4928 54.999C24.0938 54.913 24.0938 54.913 23.6978 54.818C22.9198 54.621 22.1478 54.404 21.3878 54.15C20.0398 53.695 18.7278 53.135 17.4768 52.464C16.2478 51.809 15.0738 51.052 13.9738 50.205C13.1728 49.585 12.4078 48.917 11.6838 48.207C7.37984 43.992 4.66484 38.454 2.95084 32.769C2.67784 31.862 2.42684 30.946 2.20184 30.027C1.88384 28.745 1.60984 27.457 1.37184 26.159C1.09184 24.626 0.860842 23.083 0.676842 21.534C0.432842 19.53 0.264842 17.516 0.155842 15.5C0.0178417 12.955 -0.0181583 10.407 0.00784171 7.856C0.406842 7.815 0.805842 7.773 1.20784 7.726C2.65084 7.545 4.09184 7.32 5.51984 7.03C7.84184 6.559 10.1328 5.942 12.3808 5.198C15.2118 4.263 17.9748 3.134 20.6728 1.877C21.9598 1.279 23.2308 0.646 24.4918 0C24.5908 0.064 24.6938 0.13 24.7938 0.194ZM23.7898 4.364C22.7478 4.867 21.6988 5.36 20.6408 5.83C18.5728 6.746 16.4658 7.586 14.3238 8.324C12.0818 9.097 9.79484 9.752 7.47884 10.274C6.24384 10.551 5.00184 10.783 3.75084 10.983L3.62584 11.002C3.65784 13.34 3.75784 15.675 3.95384 18.003C4.10784 19.873 4.32084 21.741 4.60984 23.598C4.82884 25.02 5.08884 26.432 5.40084 27.835C5.62884 28.866 5.88284 29.89 6.17284 30.905C6.40784 31.735 6.66184 32.559 6.94184 33.377C8.55684 38.101 10.9878 42.682 14.7068 46.12C15.2668 46.635 15.8488 47.122 16.4598 47.577C17.3218 48.223 18.2388 48.805 19.1938 49.314C20.8628 50.205 22.6448 50.86 24.4848 51.324C24.7518 51.254 25.0188 51.178 25.2858 51.101C26.5888 50.7 27.8498 50.188 29.0488 49.539C29.6918 49.189 30.3158 48.804 30.9178 48.387C34.7878 45.712 37.6118 41.805 39.6478 37.641C40.0048 36.916 40.3398 36.175 40.6518 35.43C41.0348 34.517 41.3848 33.595 41.7068 32.659C42.0958 31.539 42.4468 30.407 42.7588 29.265C43.1768 27.751 43.5308 26.224 43.8368 24.684C44.2258 22.715 44.5288 20.73 44.7598 18.735C45.0488 16.241 45.2228 13.738 45.3158 11.228L45.3218 11.056C44.8618 10.992 44.3988 10.926 43.9388 10.856C43.4788 10.783 43.0158 10.706 42.5558 10.627C39.6188 10.093 36.7208 9.377 33.8898 8.426C31.7728 7.71 29.6988 6.874 27.6918 5.9C26.6078 5.375 25.5498 4.809 24.5078 4.214L24.3148 4.103C24.1408 4.193 23.9668 4.278 23.7898 4.364ZM32.3178 35.093H16.6778V23.486H18.6178V20.95C18.6178 17.753 21.2618 15.135 24.4978 15.135C27.7308 15.135 30.3778 17.753 30.3778 20.95V23.485H32.3178V35.093ZM28.4158 23.486V20.95C28.4158 18.819 26.6528 17.076 24.4978 17.076C22.3428 17.076 20.5768 18.819 20.5768 20.95V23.485H28.4158V23.486Z" fill="#D6D7DA"/>
</svg>
