<svg width="55" height="55" viewBox="0 0 55 55" fill="none" xmlns="http://www.w3.org/2000/svg">
<path d="M27.5159 4C29.8317 4 32.1485 4.001 34.4633 4.003C34.4694 6.685 34.4674 9.369 34.4653 12.129L34.4633 16.497V20.497H38.4961L42.6731 20.494L46.6837 20.491C48.1143 20.491 49.5368 20.493 50.9614 20.498C50.9705 25.163 50.9705 29.826 50.9614 34.486C46.7996 34.503 38.5032 34.51 38.5022 34.51L34.4633 34.513L34.4724 38.519C34.4724 38.61 34.4916 47.089 34.4593 50.965C32.2846 50.988 30.0575 51 27.8274 51C25.4521 51 23.0052 50.986 20.5361 50.96C20.5129 47.047 20.5321 38.589 20.5331 38.5L20.5422 34.491H16.5003H4.5764C4.37677 34.491 4.20135 34.488 4.04709 34.484C4.04205 34.305 4.03903 34.098 4.03903 33.856C4.03399 29.404 4.02794 24.95 4.03802 20.498C5.42933 20.493 6.82265 20.492 8.22304 20.492L12.2861 20.495L16.4993 20.498H20.5321V16.498V12.231V4.009C20.5321 4.007 20.5321 4.006 20.5321 4.004C22.861 4.001 25.1889 4 27.5159 4ZM27.5159 0C25.1678 0 22.8187 0.001 20.4696 0.003C17.3936 0.007 16.5033 0.91 16.4993 4.003C16.4973 8.11 16.4993 12.217 16.4993 16.497C13.6864 16.497 10.9411 16.491 8.22304 16.491C6.69361 16.491 5.17325 16.493 3.6539 16.499C0.999321 16.514 0.0133062 17.501 0.00624885 20.13C-0.0048413 24.712 0.00120787 29.293 0.00624885 33.873C0.00624885 37.795 0.689805 38.486 4.57035 38.491H16.4993C16.4993 38.491 16.4771 47.867 16.5064 51.534C16.5306 53.668 17.4984 54.925 19.3132 54.947C22.1512 54.981 24.9893 55 27.8274 55C30.3751 55 32.9218 54.985 35.4685 54.953C37.4425 54.929 38.4689 53.759 38.486 51.744C38.5284 48.308 38.5062 38.51 38.5062 38.51C38.5062 38.51 47.1837 38.503 51.2488 38.485C53.9951 38.47 54.9861 37.48 54.9932 34.763C55.0023 29.952 55.0023 25.143 54.9932 20.331C54.9861 17.455 54.0546 16.508 51.1953 16.498C49.6941 16.492 48.1929 16.49 46.6837 16.49C43.9988 16.49 41.2868 16.496 38.4971 16.496C38.4971 12.111 38.5062 7.991 38.4971 3.873C38.486 0.922 37.5514 0.006 34.5631 0.002C32.213 0.001 29.8649 0 27.5159 0Z" fill="#D6D7DA"/>
</svg>
