<svg width="100" height="100" viewBox="0 0 100 100" fill="none" xmlns="http://www.w3.org/2000/svg">
<path d="M50 100C77.6142 100 100 77.6142 100 50C100 22.3858 77.6142 0 50 0C22.3858 0 0 22.3858 0 50C0 77.6142 22.3858 100 50 100Z" fill="#EDEDED"/>
<path d="M1.166 2.332H13.606C14.25 2.332 14.772 1.81 14.772 1.166C14.772 0.521999 14.25 -1.49536e-06 13.606 -1.49536e-06H1.166C0.522 -1.49536e-06 -1.83105e-07 0.521999 -1.83105e-07 1.166C-1.83105e-07 1.81 0.522 2.332 1.166 2.332Z" transform="translate(36.917 40.843)" fill="#323648"/>
<path d="M1.166 2.332H19.825C20.469 2.332 20.991 1.81 20.991 1.166C20.991 0.522 20.469 -2.13623e-07 19.825 -2.13623e-07H1.166C0.522 -2.13623e-07 -1.83105e-07 0.522 -1.83105e-07 1.166C-1.83105e-07 1.81 0.522 2.332 1.166 2.332Z" transform="translate(36.917 46.6741)" fill="#323648"/>
<path d="M13.606 1.06812e-06H1.166C0.522 1.06812e-06 -1.83105e-07 0.522001 -1.83105e-07 1.166C-1.83105e-07 1.81 0.522 2.332 1.166 2.332H13.606C14.25 2.332 14.772 1.81 14.772 1.166C14.772 0.522001 14.25 1.06812e-06 13.606 1.06812e-06Z" transform="translate(36.917 52.5051)" fill="#323648"/>
<path d="M11.533 -1.46484e-06H1.166C0.522 -1.46484e-06 -1.83105e-07 0.521999 -1.83105e-07 1.166C-1.83105e-07 1.81 0.522 2.332 1.166 2.332H11.533C12.177 2.332 12.699 1.81 12.699 1.166C12.699 0.521999 12.177 -1.46484e-06 11.533 -1.46484e-06Z" transform="translate(36.917 58.3359)" fill="#323648"/>
<path d="M25.329 2.5L34.823 11.994V42.912C34.823 43.454 34.365 43.912 33.823 43.912H3.5C2.958 43.912 2.5 43.454 2.5 42.912V3.5C2.5 2.958 2.958 2.5 3.5 2.5H25.329ZM26.365 8.23975e-07H3.5C1.575 8.23975e-07 4.42505e-07 1.575 4.42505e-07 3.5V42.912C4.42505e-07 44.837 1.575 46.412 3.5 46.412H33.824C35.749 46.412 37.324 44.837 37.324 42.912V10.959L26.365 8.23975e-07Z" transform="translate(31.0859 25.686)" fill="#323648"/>
<path d="M1.219 8.23975e-07H-8.54492e-07V5.579C-8.54492e-07 7.504 1.575 9.079 3.5 9.079H10.297L7.797 6.579H3.5C2.958 6.579 2.5 6.121 2.5 5.579V1.282L1.219 8.23975e-07Z" transform="translate(55.1958 28.186)" fill="#323648"/>
<path d="M6.84 0H0V13.31H6.84V0Z" transform="translate(63.9858 54.0129)" fill="#EDEDED"/>
<path d="M0.441139 5.94493C0.812139 5.66693 1.32214 5.61993 1.74014 5.89893C2.15714 6.17693 2.76114 6.40893 3.59614 6.45593C5.35914 6.50193 8.46714 5.52793 13.0591 0.378929C13.4771 -0.0850713 14.1721 -0.13107 14.6831 0.28593C15.1011 0.65693 15.1931 1.30693 14.8691 1.76993C13.9411 3.30093 13.0601 4.97093 12.5961 6.08393L12.6421 6.03793C12.6881 6.03793 12.6881 5.99193 12.7351 5.99193C14.5911 4.92493 17.4201 3.02293 18.0231 2.23393C18.3011 1.86293 18.8121 1.67693 19.2761 1.81593C20.0181 2.04793 20.2971 2.88293 19.9251 3.48593C19.0441 4.96993 18.3481 6.82593 18.3941 7.47493C18.4871 7.47493 18.6261 7.47493 18.8581 7.38193C20.1111 7.05693 20.7141 6.63993 21.2701 6.26893C21.8271 5.85093 22.4761 5.43393 23.5431 5.57293C24.3321 5.66593 25.2591 6.12993 26.8371 7.19693C26.8831 7.19693 26.8831 7.19693 26.8831 7.24293C27.0691 7.38193 28.5991 8.40293 30.4091 7.14993C30.9661 6.77893 31.7081 6.91793 32.0331 7.47493C32.3581 7.98493 32.1721 8.68093 31.6621 9.05193C30.5951 9.79393 29.5281 10.0259 28.5541 10.0259C27.2091 10.0259 26.0951 9.51593 25.4921 9.09793C25.0281 8.77293 23.7291 7.93793 23.1731 7.84493C23.0801 7.84493 23.0341 7.84493 22.5241 8.16993C21.9671 8.63393 21.0401 9.28293 19.3701 9.65393C17.7461 10.0719 16.9111 9.51493 16.5401 8.95793C16.1221 8.35493 15.9831 7.56593 16.2151 6.49893C15.2411 7.14793 14.3131 7.70493 13.9421 7.89093C13.1531 8.44793 11.5301 9.56093 10.4631 8.53993C9.90614 8.02993 9.81414 7.33393 10.1381 6.17393C7.72614 7.93693 5.49914 8.77193 3.45814 8.67893C2.15914 8.63293 1.18514 8.16893 0.535137 7.75093C-0.161863 7.38293 -0.161861 6.40893 0.441139 5.94493Z" transform="translate(51.689 55.655)" fill="#323648"/>
</svg>
