<svg width="100" height="100" viewBox="0 0 100 100" fill="none" xmlns="http://www.w3.org/2000/svg">
<path d="M50 100C77.6142 100 100 77.6142 100 50C100 22.3858 77.6142 0 50 0C22.3858 0 0 22.3858 0 50C0 77.6142 22.3858 100 50 100Z" fill="#EDEDED"/>
<path d="M35.296 2.67029e-07H6.016C2.699 2.67029e-07 -1.37329e-07 2.699 -1.37329e-07 6.016V63.294C-1.37329e-07 66.611 2.699 69.31 6.016 69.31H35.296C38.613 69.31 41.312 66.611 41.312 63.294V6.016C41.312 2.699 38.613 2.67029e-07 35.296 2.67029e-07ZM39.123 63.294C39.123 65.404 37.406 67.121 35.296 67.121H6.016C3.906 67.121 2.189 65.404 2.189 63.294V56.998H39.124V63.294H39.123ZM39.123 54.81H2.189V14.5H39.124V54.81H39.123ZM39.123 12.311H2.189V6.015C2.189 3.905 3.906 2.188 6.016 2.188H35.296C37.406 2.188 39.123 3.905 39.123 6.015V12.311Z" transform="translate(29.3442 15.345)" fill="#323648"/>
<path d="M7.594 -5.49316e-07H1.094C0.489 -5.49316e-07 -1.77002e-06 0.489999 -1.77002e-06 1.094C-1.77002e-06 1.698 0.49 2.188 1.094 2.188H7.594C8.199 2.188 8.688 1.698 8.688 1.094C8.688 0.489999 8.199 -5.49316e-07 7.594 -5.49316e-07Z" transform="translate(45.6562 21.501)" fill="#323648"/>
<path d="M3.715 7.429C5.763 7.429 7.43 5.762 7.43 3.715C7.43 1.667 5.763 1.28174e-06 3.715 1.28174e-06C1.667 1.28174e-06 -1.52588e-07 1.667 -1.52588e-07 3.715C-1.52588e-07 5.762 1.667 7.429 3.715 7.429ZM3.715 2.189C4.556 2.189 5.241 2.874 5.241 3.715C5.241 4.556 4.556 5.24 3.715 5.24C2.874 5.24 2.189 4.556 2.189 3.715C2.189 2.874 2.874 2.189 3.715 2.189Z" transform="translate(46.2852 73.7061)" fill="#323648"/>
<path d="M2.283 28.937H20.364C21.623 28.937 22.647 27.913 22.647 26.654V10.965C22.647 10.889 22.639 10.815 22.625 10.744C22.575 10.09 22.314 9.5 21.904 9.036C21.888 9.017 21.882 8.993 21.864 8.975L21.81 8.921C21.795 8.906 21.781 8.891 21.766 8.877L13.739 0.883001C13.735 0.879001 13.73 0.874001 13.726 0.870001L13.677 0.821001C13.662 0.806001 13.642 0.801001 13.626 0.787001C13.095 0.303001 12.397 -1.77002e-06 11.623 -1.77002e-06H2.283C1.024 -1.77002e-06 -1.31226e-06 1.024 -1.31226e-06 2.283V26.653C-1.31226e-06 27.913 1.024 28.937 2.283 28.937ZM14.608 4.839L17.823 8.041H15.343C14.937 8.041 14.607 7.711 14.607 7.305V4.839H14.608ZM2.189 2.284C2.189 2.232 2.231 2.19 2.283 2.19H11.623C11.839 2.19 12.034 2.278 12.178 2.418L12.191 2.431C12.331 2.575 12.419 2.771 12.419 2.987V7.304C12.419 8.917 13.731 10.229 15.343 10.229H19.723C19.919 10.229 20.094 10.308 20.226 10.433L20.254 10.461C20.379 10.593 20.458 10.769 20.458 10.964V26.653C20.458 26.705 20.416 26.747 20.364 26.747H2.283C2.231 26.747 2.189 26.705 2.189 26.653V2.284Z" transform="translate(38.6763 35.531)" fill="#323648"/>
<path d="M1.094 2.188H9.088C9.693 2.188 10.182 1.698 10.182 1.094C10.182 0.49 9.692 1.5564e-06 9.088 1.5564e-06H1.094C0.488998 1.5564e-06 3.96729e-07 0.49 3.96729e-07 1.094C3.96729e-07 1.698 0.488998 2.188 1.094 2.188Z" transform="translate(44.9092 50.8931)" fill="#323648"/>
<path d="M1.094 2.188H9.088C9.693 2.188 10.182 1.698 10.182 1.094C10.182 0.489998 9.692 4.27246e-07 9.088 4.27246e-07H1.094C0.488998 4.27246e-07 3.96729e-07 0.489998 3.96729e-07 1.094C3.96729e-07 1.698 0.488998 2.188 1.094 2.188Z" transform="translate(44.9092 55.7769)" fill="#323648"/>
</svg>
