<svg width="101" height="101" viewBox="0 0 101 101" fill="none" xmlns="http://www.w3.org/2000/svg">
<path d="M50 100C77.6142 100 100 77.6142 100 50C100 22.3858 77.6142 0 50 0C22.3858 0 0 22.3858 0 50C0 77.6142 22.3858 100 50 100Z" transform="translate(0.803223 0.213379)" fill="#EDEDED"/>
<path d="M1.166 2.332H13.606C14.25 2.332 14.772 1.81 14.772 1.166C14.772 0.522001 14.25 2.13623e-07 13.606 2.13623e-07H1.166C0.521999 2.13623e-07 -1.28174e-06 0.522001 -1.28174e-06 1.166C-1.28174e-06 1.81 0.521999 2.332 1.166 2.332Z" transform="translate(37.9722 42.1643)" fill="#323648"/>
<path d="M1.166 2.332H19.825C20.469 2.332 20.991 1.81 20.991 1.166C20.991 0.522002 20.469 1.49536e-06 19.825 1.49536e-06H1.166C0.521999 1.49536e-06 -1.28174e-06 0.522002 -1.28174e-06 1.166C-1.28174e-06 1.81 0.521999 2.332 1.166 2.332Z" transform="translate(37.9722 47.9954)" fill="#323648"/>
<path d="M13.606 -1.0376e-06H1.166C0.521999 -1.0376e-06 -1.28174e-06 0.521999 -1.28174e-06 1.166C-1.28174e-06 1.81 0.521999 2.332 1.166 2.332H13.606C14.25 2.332 14.772 1.81 14.772 1.166C14.772 0.521999 14.25 -1.0376e-06 13.606 -1.0376e-06Z" transform="translate(37.9722 53.8264)" fill="#323648"/>
<path d="M11.533 2.44141e-07H1.166C0.521999 2.44141e-07 -1.28174e-06 0.522001 -1.28174e-06 1.166C-1.28174e-06 1.81 0.521999 2.332 1.166 2.332H11.533C12.177 2.332 12.699 1.81 12.699 1.166C12.699 0.522001 12.177 2.44141e-07 11.533 2.44141e-07Z" transform="translate(37.9722 59.6572)" fill="#323648"/>
<path d="M25.33 2.5L34.824 11.994V42.912C34.824 43.454 34.366 43.912 33.824 43.912H3.5C2.958 43.912 2.5 43.454 2.5 42.912V3.5C2.5 2.958 2.958 2.5 3.5 2.5H25.33ZM26.365 6.2561e-07H3.5C1.575 6.2561e-07 -6.56128e-07 1.575 -6.56128e-07 3.5V42.912C-6.56128e-07 44.837 1.575 46.412 3.5 46.412H33.824C35.749 46.412 37.324 44.837 37.324 42.912V10.959L26.365 6.2561e-07Z" transform="translate(32.1411 27.0073)" fill="#323648"/>
<path d="M1.219 6.2561e-07H1.31226e-06V5.579C1.31226e-06 7.504 1.575 9.079 3.5 9.079H10.297L7.797 6.579H3.5C2.958 6.579 2.5 6.121 2.5 5.579V1.282L1.219 6.2561e-07Z" transform="translate(56.252 29.5073)" fill="#323648"/>
<path d="M43.064 2C45.821 2 48.064 4.243 48.064 7V54.898C48.064 57.655 45.821 59.898 43.064 59.898H7C4.243 59.898 2 57.655 2 54.898V7C2 4.243 4.243 2 7 2H43.064ZM43.064 5.95093e-07H7C3.15 5.95093e-07 4.11987e-07 3.15 4.11987e-07 7V54.898C4.11987e-07 58.748 3.15 61.898 7 61.898H43.065C46.915 61.898 50.065 58.748 50.065 54.898V7C50.064 3.15 46.914 5.95093e-07 43.064 5.95093e-07Z" transform="translate(25.771 19.2644)" fill="#323648"/>
</svg>
