<svg width="61" height="55" viewBox="0 0 61 55" fill="none" xmlns="http://www.w3.org/2000/svg">
<path d="M30.5 0C13.4193 0 0 7.563 0 17.188V24.063V30.938V37.813C0 47.438 13.4193 55 30.5 55C47.5807 55 61 47.437 61 37.812V30.937V24.062V17.187C60.999 7.563 47.5787 0 30.5 0ZM5.76126 43.313C5.42213 42.9 5.083 42.488 4.8119 42.075V40.288C5.15103 40.563 5.42213 40.838 5.76028 41.113V43.313H5.76126ZM5.76126 36.438C5.42213 36.025 5.083 35.613 4.8119 35.2V33.413C5.15103 33.688 5.42213 33.963 5.76028 34.238V36.438H5.76126ZM5.76126 29.563C5.42213 29.15 5.083 28.737 4.8119 28.325V26.538C5.15103 26.813 5.42213 27.088 5.76028 27.363V29.563H5.76126ZM9.28565 46.269C8.60739 45.857 7.99814 45.444 7.45593 44.963V42.35C8.06616 42.694 8.67542 43.106 9.28565 43.45V46.269ZM9.28565 39.394C8.60739 38.982 7.99814 38.569 7.45593 38.088V35.475C8.06616 35.819 8.67542 36.231 9.28565 36.575V39.394ZM9.28565 32.519C8.60739 32.107 7.99814 31.694 7.45593 31.213V28.6C8.06616 28.944 8.67542 29.356 9.28565 29.7V32.519ZM13.5553 48.469C12.674 48.125 11.7926 47.713 10.9803 47.231V44.206C11.7936 44.618 12.675 44.962 13.5553 45.237V48.469ZM13.5553 41.594C12.674 41.25 11.7926 40.838 10.9803 40.356V37.331C11.7936 37.743 12.675 38.087 13.5553 38.362V41.594ZM13.5553 34.719C12.674 34.375 11.7926 33.963 10.9803 33.482V30.457C11.7936 30.869 12.675 31.213 13.5553 31.488V34.719ZM18.4353 50.05C17.3508 49.775 16.2664 49.431 15.25 49.087V45.856C16.2664 46.2 17.3508 46.475 18.4353 46.75V50.05ZM18.4353 43.175C17.3508 42.9 16.2664 42.556 15.25 42.212V38.981C16.2664 39.325 17.3508 39.6 18.4353 39.875V43.175ZM18.4353 36.3C17.3508 36.025 16.2664 35.681 15.25 35.337V32.106C16.2664 32.45 17.3508 32.725 18.4353 33V36.3ZM23.8574 51.15C22.5699 51.013 21.3494 50.738 20.1299 50.531V47.162C21.3494 47.368 22.5699 47.574 23.8574 47.781V51.15ZM23.8574 44.275C22.5699 44.138 21.3494 43.863 20.1299 43.656V40.287C21.3494 40.493 22.5699 40.699 23.8574 40.906V44.275ZM23.8574 37.4C22.5699 37.263 21.3494 36.988 20.1299 36.781V33.412C21.3494 33.618 22.5699 33.824 23.8574 34.031V37.4ZM29.6857 51.563C28.2621 51.563 26.9066 51.494 25.5511 51.357V47.919C26.9066 48.056 28.2621 48.125 29.6857 48.125V51.563ZM29.6857 44.688C28.2621 44.688 26.9066 44.619 25.5511 44.482V41.044C26.9066 41.181 28.2621 41.25 29.6857 41.25V44.688ZM29.6857 37.813C28.2621 37.813 26.9066 37.744 25.5511 37.607V34.169C26.9066 34.306 28.2621 34.375 29.6857 34.375V37.813ZM35.447 51.287C34.0914 51.424 32.7359 51.493 31.3123 51.493V48.055C32.7359 48.055 34.0914 47.986 35.447 47.849V51.287ZM35.447 44.412C34.0914 44.549 32.7359 44.618 31.3123 44.618V41.18C32.7359 41.18 34.0914 41.111 35.447 40.974V44.412ZM35.447 37.537C34.0914 37.674 32.7359 37.743 31.3123 37.743V34.305C32.7359 34.305 34.0914 34.236 35.447 34.099V37.537ZM40.8691 50.463C39.6496 50.738 38.4291 50.944 37.1416 51.082V47.713C38.4291 47.576 39.6496 47.369 40.8691 47.094V50.463ZM40.8691 43.588C39.6496 43.863 38.4291 44.069 37.1416 44.207V40.838C38.4291 40.701 39.6496 40.494 40.8691 40.219V43.588ZM40.8691 36.713C39.6496 36.988 38.4291 37.194 37.1416 37.332V33.963C38.4291 33.826 39.6496 33.619 40.8691 33.344V36.713ZM45.749 49.088C44.7326 49.432 43.6482 49.776 42.5638 50.051V46.751C43.6482 46.476 44.7326 46.201 45.749 45.857V49.088ZM45.749 42.213C44.7326 42.557 43.6482 42.901 42.5638 43.176V39.876C43.6482 39.601 44.7326 39.326 45.749 38.982V42.213ZM45.749 35.338C44.7326 35.682 43.6482 36.026 42.5638 36.301V33C43.6482 32.725 44.7326 32.45 45.749 32.106V35.338ZM50.0197 47.231C49.2064 47.643 48.325 48.056 47.4437 48.469V45.307C48.325 44.963 49.2054 44.619 50.0197 44.276V47.231ZM50.0197 40.356C49.2064 40.768 48.325 41.181 47.4437 41.594V38.432C48.325 38.088 49.2054 37.744 50.0197 37.401V40.356ZM50.0197 33.481C49.2064 33.894 48.325 34.306 47.4437 34.718V31.556C48.325 31.212 49.2054 30.868 50.0197 30.525V33.481ZM53.5441 44.963C53.0019 45.444 52.3916 45.857 51.7143 46.269V43.382C52.3246 43.038 52.9348 42.694 53.5441 42.282V44.963ZM53.5441 38.088C53.0019 38.569 52.3916 38.982 51.7143 39.394V36.507C52.3246 36.163 52.9348 35.819 53.5441 35.407V38.088ZM53.5441 31.213C53.0019 31.694 52.3916 32.107 51.7143 32.519V29.631C52.3246 29.287 52.9348 28.943 53.5441 28.531V31.213ZM56.1871 42.075C55.916 42.487 55.5769 42.9 55.2377 43.313V41.113C55.5769 40.838 55.916 40.563 56.1871 40.288V42.075ZM56.1871 35.2C55.916 35.612 55.5769 36.025 55.2377 36.438V34.238C55.5769 33.963 55.916 33.688 56.1871 33.413V35.2ZM56.1871 28.325C55.916 28.737 55.5769 29.15 55.2377 29.562V27.362C55.5769 27.087 55.916 26.812 56.1871 26.537V28.325ZM30.5 30.938C15.7922 30.938 3.38933 24.613 3.38933 17.188C3.38933 9.763 15.7922 3.438 30.5 3.438C45.2078 3.438 57.6107 9.763 57.6107 17.188C57.6107 24.613 45.2068 30.938 30.5 30.938Z" fill="#D6D7DA"/>
</svg>
