<svg width="100" height="100" viewBox="0 0 100 100" fill="none" xmlns="http://www.w3.org/2000/svg">
<path d="M50 100C77.6142 100 100 77.6142 100 50C100 22.3858 77.6142 0 50 0C22.3858 0 0 22.3858 0 50C0 77.6142 22.3858 100 50 100Z" fill="#EDEDED"/>
<path d="M25.8055 32.91C25.8985 32.91 25.8985 32.91 25.9905 32.91H26.0835H26.1765C29.8835 32.817 32.8495 31.52 35.0735 29.11C39.9855 23.642 39.1515 14.189 39.0585 13.262C38.5025 2.51104 30.6245 -0.175959 25.9905 0.0090408C21.3565 -0.175959 13.4785 2.41904 12.9225 13.262C12.8295 14.096 11.9955 23.549 16.9075 29.11C19.1335 31.612 22.0985 32.91 25.8055 32.91ZM16.0745 13.54V13.447C16.2595 9.09104 17.8355 6.03304 20.8015 4.45704C23.1185 3.16004 25.6205 3.25204 25.8985 3.25204H25.9915C26.2695 3.25204 28.6795 3.15904 31.0885 4.45704C34.0545 6.03304 35.6295 9.09104 35.8155 13.447V13.54C35.8155 13.633 36.7425 22.344 32.6645 26.978C30.9965 28.832 28.8645 29.758 25.9915 29.758C25.9915 29.758 25.9915 29.758 25.8985 29.758C25.8985 29.758 25.8985 29.758 25.8055 29.758C22.9325 29.758 20.8005 28.831 19.1325 26.978C15.2405 22.437 16.0745 13.632 16.0745 13.54ZM0.0414719 48.85C-0.329528 43.104 1.80247 39.211 5.88047 38.192C11.6265 36.709 16.4455 33.373 16.5385 33.373C17.2795 32.91 18.2065 33.002 18.7625 33.744C19.2255 34.485 19.1335 35.412 18.3915 35.968C18.2065 36.153 13.1085 39.675 6.71347 41.251C3.37747 42.085 3.09947 46.256 3.28447 48.665V48.758C3.28447 49.963 3.37747 51.724 3.56247 52.836C5.60147 53.948 13.7575 58.119 26.1765 58.119C27.0105 58.119 27.7525 58.86 27.7525 59.695C27.7525 60.529 27.0115 61.271 26.1765 61.271C10.8845 61.271 1.80147 55.432 1.33847 55.154C1.06047 54.969 0.875473 54.691 0.689473 54.413C0.0414726 52.928 0.0414719 49.685 0.0414719 48.85ZM33.8695 38.841V42.919H31.2745C30.4405 42.919 29.6985 43.66 29.6985 44.495V59.138C29.6985 59.972 30.4395 60.714 31.2745 60.714H53.8885C54.7225 60.714 55.4645 59.973 55.4645 59.138V44.494C55.4645 43.66 54.7235 42.918 53.8885 42.918H51.2935V38.84C51.2935 34.021 47.4005 30.036 42.4895 30.036C37.5765 30.037 33.8695 34.022 33.8695 38.841ZM52.3125 46.07V57.562H32.8495V46.163H52.3125V46.07ZM37.0205 38.841C37.0205 35.783 39.5225 33.28 42.5815 33.28C45.6395 33.28 48.1425 35.782 48.1425 38.841V42.919H37.0205V38.841Z" transform="translate(22.2686 15.5559)" fill="#323648"/>
</svg>
