<svg width="680" height="680" viewBox="0 0 680 680" fill="none" xmlns="http://www.w3.org/2000/svg">
<path d="M680 340C680 527.783 527.783 680 340 680C152.217 680 0 527.783 0 340C0 152.217 152.217 0 340 0C527.783 0 680 152.217 680 340Z" fill="#A0D8D5"/>
<path d="M520.811 44.9978C520.811 20.0943 500.382 4.55087e-06 475.478 4.55087e-06H45.1096C20.2061 4.55087e-06 0 20.0943 0 44.9978V337.316H520.811V44.9978Z" transform="translate(70.0879 225.436)" fill="#193E4D"/>
<path d="M441.329 -4.55087e-06H41.0088C0.969303 -4.55087e-06 -1.13772e-06 2.08773 -1.13772e-06 27.8114H482.86C482.86 1.04387 481.518 -4.55087e-06 441.329 -4.55087e-06Z" transform="translate(89.3618 244.673)" fill="#64BCE9"/>
<path d="M1.04386 273.976C0.410088 269.8 -1.13772e-06 265.103 -1.13772e-06 259.958V-4.55087e-06H484.239V259.958C484.239 265.14 483.866 273.976 484.053 273.976H1.04386V273.976Z" transform="translate(88.2437 272.447)" fill="#2175A4"/>
<path d="M-2.84429e-07 0C0.186403 15.8816 8.79825 36.9824 19.386 36.9824H604.059C614.647 36.9824 623.259 15.8816 623.445 0H-2.84429e-07Z" transform="translate(18.752 562.752)" fill="#11262D"/>
<path d="M113.855 5.0329C113.855 7.79168 111.618 10.0658 108.822 10.0658H5.03289C2.27412 10.0658 0 7.82896 0 5.0329C0 2.27413 2.23684 9.10173e-06 5.03289 9.10173e-06H108.86C111.618 9.10173e-06 113.855 2.27413 113.855 5.0329Z" transform="translate(273.64 578.186)" fill="white"/>
<path d="M324.417 16.9254C324.417 19.125 322.627 20.9145 320.428 20.9145H3.98903C1.78947 20.9145 -4.55087e-06 19.125 -4.55087e-06 16.9254V3.98904C-4.55087e-06 1.78948 1.78947 4.55087e-06 3.98903 4.55087e-06H320.428C322.627 4.55087e-06 324.417 1.78948 324.417 3.98904V16.9254Z" transform="translate(168.248 248.737)" fill="#325768"/>
<path d="M3.24342 0.0372762C1.45395 0.0372762 -2.27543e-06 1.49123 -2.27543e-06 3.2807V13.8684C-2.27543e-06 15.6579 1.45395 17.1118 3.24342 17.1118H300.855V4.55087e-06H3.24342V0.0372762Z" transform="translate(170.335 250.601)" fill="#64BCE9"/>
<path d="M1.5287 7.90369C3.28089 9.46948 5.92783 9.39491 7.64274 7.82913L9.61859 9.54405C9.50675 9.87958 9.58134 10.2897 9.87958 10.5133L13.9432 14.0923C14.316 14.4278 14.9125 14.3533 15.2853 13.9432C15.6581 13.5331 15.6581 12.8993 15.248 12.5638L11.1844 8.98484C10.9234 8.76116 10.5133 8.72388 10.1778 8.873L8.20195 7.15808C9.54406 5.29404 9.28307 2.64711 7.53088 1.1186C5.66684 -0.521752 2.79625 -0.335335 1.11862 1.5287C-0.521734 3.39274 -0.33534 6.26334 1.5287 7.90369ZM0.857625 4.47386C0.857625 2.42342 2.53527 0.783086 4.54842 0.783086C6.59886 0.783086 8.23922 2.4607 8.23922 4.47386C8.23922 6.5243 6.56158 8.16466 4.54842 8.16466C2.49798 8.20194 0.857625 6.5243 0.857625 4.47386Z" transform="translate(473.427 252.055)" fill="white"/>
<path d="M19.4233 9.10173e-06H1.82035e-05V0.633763H19.4233V9.10173e-06Z" transform="translate(528.193 252.167)" fill="white"/>
<path d="M19.4233 -9.10173e-06H1.82035e-05V0.633767H19.4233V-9.10173e-06Z" transform="translate(528.193 256.342)" fill="white"/>
<path d="M19.4233 -4.55087e-06H1.82035e-05V0.633772H19.4233V-4.55087e-06Z" transform="translate(528.193 260.331)" fill="white"/>
<path d="M19.4233 9.10173e-06H1.82035e-05V0.633763H19.4233V9.10173e-06Z" transform="translate(528.193 264.283)" fill="white"/>
<path d="M195.947 9.10173e-06V65.0921C195.947 72.4364 190.02 78.364 182.675 78.364H60.3948H13.2719C5.92764 78.364 1.82035e-05 72.4364 1.82035e-05 65.0921V9.10173e-06H176.748H195.947Z" transform="translate(436.668 343.877)" fill="#7E8080"/>
<path d="M13.2719 2.83333L182.675 4.55087e-06C187.634 4.55087e-06 191.921 2.7215 194.232 6.71053C195.351 8.64913 195.947 10.886 195.947 13.2719V25.0526V49.8816H-1.82035e-05V25.0526V16.1053C-1.82035e-05 8.76097 5.96493 2.83333 13.2719 2.83333Z" transform="translate(436.631 294.033)" fill="#7E8080"/>
<path d="M116.353 -9.10173e-06H135.553V65.0921C135.553 72.4364 129.625 78.3641 122.281 78.3641H0C64.7193 61.2895 98.682 27.9232 116.353 -9.10173e-06Z" transform="translate(494.714 341.156)" fill="#AEB1B0"/>
<path d="M0 65.0921V4.55087e-06H176.748C159.077 27.9232 125.114 61.3268 60.3947 78.4013H13.2719C5.92762 78.364 0 72.3991 0 65.0921Z" transform="translate(434.32 341.193)" fill="#BCC2C0"/>
<path d="M6.63596 6.5614V15.5088H1.82035e-05C2.49783 9.13377 3.98904 3.80264 4.88378 9.10173e-06C6.0022 1.93861 6.63596 4.17544 6.63596 6.5614Z" transform="translate(623.631 300.818)" fill="#AEB1B0"/>
<path d="M0 13.2719C0 5.92762 5.92762 0 13.2719 0H182.675C187.634 0 191.921 2.72149 194.232 6.71053C193.338 10.4759 191.809 15.807 189.349 22.2193H0V13.2719Z" transform="translate(434.32 294.145)" fill="#BCC2C0"/>
<path d="M195.947 0H0V24.8289H195.947V0Z" transform="translate(434.32 316.327)" fill="#404F52"/>
<path d="M103.193 -9.10173e-06H1.82035e-05V14.3531H103.193V-9.10173e-06Z" transform="translate(521.854 351.594)" fill="#EFF8F8"/>
<path d="M66.6206 -9.10173e-06H9.10173e-06V14.3531H66.6206V-9.10173e-06Z" transform="translate(440.993 351.594)" fill="#EFF8F8"/>
<path d="M35.4167 -1.82035e-05H-1.82035e-05V11.818H35.4167V-1.82035e-05Z" transform="translate(499.263 390.031)" fill="#7E8080"/>
<path d="M19.1623 -1.82035e-05H-9.10173e-06V11.818H19.1623V-1.82035e-05Z" transform="translate(465.3 390.031)" fill="#7E8080"/>
<path d="M25.0899 2.27543e-06C11.2588 2.27543e-06 -2.27543e-06 11.2215 -2.27543e-06 25.0526V191.623C-2.27543e-06 205.193 10.8487 216.34 24.3443 216.713C24.6053 216.713 24.829 216.713 25.0899 216.713C38.9211 216.713 50.1798 205.417 50.1798 191.586V78.1404V25.0526C50.1425 11.2215 38.9211 2.27543e-06 25.0899 2.27543e-06Z" transform="translate(108.077 183.086)" fill="white"/>
<path d="M183.048 0H-2.27543e-06V306.895H183.048V0Z" transform="translate(108.077 39.182)" fill="white"/>
<path d="M169.702 0H2.27543e-06V5.14473H169.702V0Z" transform="translate(115.235 197.588)" fill="#D5D6D5"/>
<path d="M169.702 9.10173e-06H2.27543e-06V5.14474H169.702V9.10173e-06Z" transform="translate(115.235 216.936)" fill="#D5D6D5"/>
<path d="M169.702 -4.55087e-06H2.27543e-06V5.14473H169.702V-4.55087e-06Z" transform="translate(115.235 236.285)" fill="#D5D6D5"/>
<path d="M169.702 4.55087e-06H2.27543e-06V5.14474H169.702V4.55087e-06Z" transform="translate(115.235 255.634)" fill="#D5D6D5"/>
<path d="M169.702 -9.10173e-06H2.27543e-06V5.14475H169.702V-9.10173e-06Z" transform="translate(115.235 274.982)" fill="#D5D6D5"/>
<path d="M149.645 0H2.27543e-06V5.14473H149.645V0Z" transform="translate(115.235 294.331)" fill="#D5D6D5"/>
<path d="M162.842 9.10173e-06H2.27543e-06V5.14474H162.842V9.10173e-06Z" transform="translate(115.235 313.68)" fill="#D5D6D5"/>
<path d="M169.702 -4.55087e-06H2.27543e-06V5.14473H169.702V-4.55087e-06Z" transform="translate(115.235 333.029)" fill="#D5D6D5"/>
<path d="M169.702 4.55087e-06H2.27543e-06V5.14474H169.702V4.55087e-06Z" transform="translate(115.235 352.377)" fill="#D5D6D5"/>
<path d="M185.322 0H0L27.364 99.614V228.046H210.412V164.408V25.0526C210.412 11.1842 199.154 0 185.322 0Z" transform="translate(181.184 235.428)" fill="white"/>
<path d="M2.27543e-06 0H0.745616C0.521932 0 0.260967 0 2.27543e-06 0Z" transform="translate(132.384 399.836)" fill="#D5D6D5"/>
<path d="M50.3289 0C36.4978 0 25.239 11.2215 25.239 25.0526L25.0899 25.8355V139.318C25.0899 153.149 13.8311 164.445 2.27543e-06 164.445H75.3816V25.0526C75.4189 11.1842 64.1601 0 50.3289 0Z" transform="translate(133.129 235.428)" fill="#D5D6D5"/>
<path d="M169.702 2.27543e-06H2.27543e-06V5.14473H169.702V2.27543e-06Z" transform="translate(115.235 62.1097)" fill="#D5D6D5"/>
<path d="M169.702 0H2.27543e-06V5.14474H169.702V0Z" transform="translate(115.235 81.4583)" fill="#D5D6D5"/>
<path d="M169.702 -2.27543e-06H2.27543e-06V5.14474H169.702V-2.27543e-06Z" transform="translate(115.235 100.807)" fill="#D5D6D5"/>
<path d="M169.702 -4.55087e-06H2.27543e-06V5.14474H169.702V-4.55087e-06Z" transform="translate(115.235 120.156)" fill="#D5D6D5"/>
<path d="M149.645 4.55087e-06H2.27543e-06V5.14474H149.645V4.55087e-06Z" transform="translate(115.235 139.504)" fill="#D5D6D5"/>
<path d="M162.842 2.27543e-06H2.27543e-06V5.14473H162.842V2.27543e-06Z" transform="translate(115.235 158.853)" fill="#D5D6D5"/>
<path d="M169.702 0H2.27543e-06V5.14473H169.702V0Z" transform="translate(115.235 178.202)" fill="#D5D6D5"/>
<path d="M169.702 0H9.10173e-06V5.14473H169.702V0Z" transform="translate(214.7 279.419)" fill="#D5D6D5"/>
<path d="M169.702 -4.55087e-06H9.10173e-06V5.14473H169.702V-4.55087e-06Z" transform="translate(214.7 301.34)" fill="#D5D6D5"/>
<path d="M169.702 -4.55087e-06H9.10173e-06V5.14473H169.702V-4.55087e-06Z" transform="translate(214.7 323.149)" fill="#D5D6D5"/>
<path d="M169.702 -9.10173e-06H9.10173e-06V5.14475H169.702V-9.10173e-06Z" transform="translate(214.7 345.07)" fill="#D5D6D5"/>
<path d="M149.645 0H9.10173e-06V5.14473H149.645V0Z" transform="translate(214.7 366.842)" fill="#D5D6D5"/>
<path d="M149.645 -9.10173e-06H9.10173e-06V5.14475H149.645V-9.10173e-06Z" transform="translate(214.7 257.647)" fill="#D5D6D5"/>
<path d="M149.645 0H9.10173e-06V5.14475H149.645V0Z" transform="translate(214.7 388.651)" fill="#D5D6D5"/>
<path d="M169.702 1.82035e-05H9.10173e-06V5.14473H169.702V1.82035e-05Z" transform="translate(214.7 410.572)" fill="#D5D6D5"/>
<path d="M169.702 1.82035e-05H9.10173e-06V5.14473H169.702V1.82035e-05Z" transform="translate(214.7 432.382)" fill="#D5D6D5"/>
<path d="M92.9408 41.2697C92.9408 44.5877 90.2566 47.3092 86.9013 47.3092H6.03946C2.72148 47.3092 9.10173e-06 44.625 9.10173e-06 41.2697V6.03948C9.10173e-06 2.7215 2.6842 -1.82035e-05 6.03946 -1.82035e-05H86.9013C90.2193 -1.82035e-05 92.9408 2.68422 92.9408 6.03948V41.2697Z" transform="translate(304.173 485.469)" fill="#E66869"/>
<path d="M0 -1.82035e-05L22.5548 65.7259L32.5833 40.8223L53.125 60.9912L58.7916 55.25L0 -1.82035e-05Z" transform="translate(350.625 506.346)" fill="#DCA54D"/>
<path d="M0 -1.82035e-05L67.1798 18.193L43.954 29.4145L64.6075 48.9868L58.7916 55.25L0 -1.82035e-05Z" transform="translate(350.625 506.346)" fill="#F1BA5A"/>
<path d="M33.4781 66.9561C51.9675 66.9561 66.9562 51.9675 66.9562 33.4781C66.9562 14.9887 51.9675 2.27543e-06 33.4781 2.27543e-06C14.9886 2.27543e-06 1.82035e-05 14.9887 1.82035e-05 33.4781C1.82035e-05 51.9675 14.9886 66.9561 33.4781 66.9561Z" transform="translate(579.64 181.035)" fill="white"/>
<path d="M0.0527138 51.3728C14.2194 51.3728 25.7019 39.8531 25.7019 25.6864C25.7019 11.5197 14.1821 -4.55087e-06 0.0527138 -4.55087e-06H0.0154422C0.0154422 2.38596 0.0154422 48.9495 0.0154422 51.3728C-0.0218385 51.3728 0.0154331 51.3728 0.0527138 51.3728Z" transform="translate(611.761 188.939)" fill="#DCA54D"/>
<path d="M25.6119 -2.27543e-06C11.4825 0.0372784 -9.10173e-06 11.5197 -9.10173e-06 25.6864C-9.10173e-06 39.8158 11.4825 51.3355 25.6119 51.3728C25.6119 48.9123 25.6119 2.34868 25.6119 -2.27543e-06Z" transform="translate(586.276 188.976)" fill="#F1BA5A"/>
<path d="M8.76097 38.0636C8.76097 21.8838 21.8465 8.79825 38.0263 8.76097C38.0263 4.84649 38.0263 1.78948 38.0263 2.27543e-06C17.0373 0.037283 9.10173e-06 17.0746 9.10173e-06 38.0636C9.10173e-06 59.0526 17 76.0899 38.0263 76.1272C38.0263 73.8531 38.0263 70.8706 38.0263 67.3662C21.8465 67.3662 8.76097 54.2434 8.76097 38.0636Z" transform="translate(573.713 176.561)" fill="#F1BA5A"/>
<path d="M37.2434 29.9737C36.9825 28.7434 36.6469 27.5504 36.2741 26.3947C34.5219 20.9145 31.5395 15.9934 27.6995 11.9298C20.7653 4.58553 10.9605 2.27543e-06 0.0745523 2.27543e-06C0.0372716 2.27543e-06 0.0372898 2.27543e-06 9.10173e-06 2.27543e-06C9.10173e-06 1.78948 9.10173e-06 4.84649 9.10173e-06 8.76097H0.0372807C16.2171 8.76097 29.3399 21.8838 29.3399 38.0636C29.3399 54.2434 16.2171 67.3662 0.0372807 67.3662H9.10173e-06C9.10173e-06 70.8706 9.10173e-06 73.8531 9.10173e-06 76.1272C0.0372898 76.1272 0.0372716 76.1272 0.0745523 76.1272C13.0855 76.1272 24.568 69.5658 31.4276 59.6118C34 55.8838 35.9013 51.7083 37.0197 47.1601C37.2807 46.0417 37.5044 44.9232 37.6908 43.8048C37.989 41.9408 38.1381 40.0022 38.1381 38.0636C38.1381 35.3048 37.8027 32.5833 37.2434 29.9737Z" transform="translate(611.739 176.561)" fill="#DCA54D"/>
<path d="M-1.82035e-05 15.1733H3.35525V0H15.136C17.2237 0 18.7895 0.074566 19.8706 0.260969C24.4189 0.932022 27.2149 4.62281 27.2149 9.13377C27.2149 11.8553 26.3575 14.1667 24.6798 16.0307C23.0022 17.8947 19.9079 18.7895 15.4715 18.7895H7.49344V21.5855H25.5746V25.239H7.49344V31.6886H3.35525V25.2763H-1.82035e-05V21.6228H3.35525V18.8268H-1.82035e-05V15.1733ZM7.49344 15.0614H15.5088C20.9145 15.0614 22.8531 12.9364 22.8531 9.2829C22.8531 6.59869 21.4737 4.6228 19.2741 4.02631C18.6031 3.83991 17.2982 3.76534 15.3969 3.76534H7.45612V15.0614H7.49344Z" transform="translate(599.734 198.706)" fill="white"/>
<path d="M33.4781 66.9561C51.9675 66.9561 66.9562 51.9675 66.9562 33.4781C66.9562 14.9886 51.9675 -2.27543e-06 33.4781 -2.27543e-06C14.9886 -2.27543e-06 -1.82035e-05 14.9886 -1.82035e-05 33.4781C-1.82035e-05 51.9675 14.9886 66.9561 33.4781 66.9561Z" transform="translate(490.502 127.836)" fill="white"/>
<path d="M0.0527138 51.3728C14.2194 51.3728 25.7019 39.8531 25.7019 25.6864C25.7019 11.5197 14.1821 2.27543e-06 0.0527138 2.27543e-06H0.0154422C0.0154422 2.38597 0.0154422 48.9496 0.0154422 51.3728C-0.0218385 51.3728 0.0154331 51.3728 0.0527138 51.3728C0.0527138 51.3728 0.0154331 51.3728 0.0527138 51.3728Z" transform="translate(522.66 135.739)" fill="#DCA54D"/>
<path d="M25.6119 4.55087e-06C11.4825 0.0372853 -9.10173e-06 11.5197 -9.10173e-06 25.6864C-9.10173e-06 39.8158 11.4825 51.3355 25.6119 51.3728C25.6119 48.9123 25.6119 2.38597 25.6119 4.55087e-06Z" transform="translate(497.175 135.776)" fill="#F1BA5A"/>
<path d="M8.76097 38.0636C8.76097 21.8838 21.8465 8.79825 38.0263 8.76096C38.0263 4.84649 38.0263 1.78947 38.0263 0C17.0373 0.0372807 9.10173e-06 17.0746 9.10173e-06 38.0636C9.10173e-06 59.0526 17 76.0899 38.0263 76.1272C38.0263 73.8531 38.0263 70.8706 38.0263 67.3662C21.8465 67.3289 8.76097 54.2061 8.76097 38.0636Z" transform="translate(484.612 123.399)" fill="#F1BA5A"/>
<path d="M37.2434 29.9737C36.9825 28.7434 36.6469 27.5504 36.2741 26.3947C34.5219 20.9145 31.5395 15.9934 27.6995 11.9298C20.7653 4.58552 10.9605 -2.27543e-06 0.0745523 -2.27543e-06C0.0372716 -2.27543e-06 0.0372898 -2.27543e-06 9.10173e-06 -2.27543e-06C9.10173e-06 1.78947 9.10173e-06 4.84649 9.10173e-06 8.76096H0.0372807C16.2171 8.76096 29.3399 21.8838 29.3399 38.0636C29.3399 54.2434 16.2171 67.3662 0.0372807 67.3662H9.10173e-06C9.10173e-06 70.8706 9.10173e-06 73.8531 9.10173e-06 76.1272C0.0372898 76.1272 0.0372716 76.1272 0.0745523 76.1272C13.0855 76.1272 24.568 69.5658 31.4276 59.6118C34 55.8838 35.9013 51.7083 37.0197 47.1601C37.2807 46.0417 37.5044 44.9232 37.6908 43.8048C37.989 41.9408 38.1381 40.0022 38.1381 38.0636C38.1009 35.3048 37.8027 32.5833 37.2434 29.9737Z" transform="translate(522.638 123.362)" fill="#DCA54D"/>
<path d="M-1.82035e-05 15.1732H3.35525V-4.55087e-06H15.136C17.2237 -4.55087e-06 18.7895 0.0745614 19.8706 0.260965C24.4189 0.932018 27.2149 4.6228 27.2149 9.13377C27.2149 11.8553 26.3575 14.1667 24.6798 16.0307C23.0022 17.8947 19.9079 18.7895 15.4715 18.7895H7.49344V21.5855H25.5746V25.239H7.49344V31.6513H3.35525V25.239H-1.82035e-05V21.5855H3.35525V18.7895H-1.82035e-05V15.1732ZM7.49344 15.0987H15.5088C20.9145 15.0987 22.8531 12.9737 22.8531 9.32017C22.8531 6.63596 21.4737 4.66009 19.2741 4.0636C18.6031 3.8772 17.2982 3.80263 15.3969 3.80263H7.45612V15.0987H7.49344Z" transform="translate(510.634 145.507)" fill="white"/>
<path d="M33.4781 66.9561C51.9675 66.9561 66.9561 51.9675 66.9561 33.4781C66.9561 14.9886 51.9675 0 33.4781 0C14.9887 0 -9.10173e-06 14.9886 -9.10173e-06 33.4781C-9.10173e-06 51.9675 14.9887 66.9561 33.4781 66.9561Z" transform="translate(573.415 65.8004)" fill="white"/>
<path d="M0.0372898 51.3728C14.204 51.3728 25.6864 39.8531 25.6864 25.6864C25.6864 11.5197 14.1667 -1.13772e-06 0.0372898 -1.13772e-06H1.82035e-05C1.82035e-05 2.38596 1.82035e-05 48.9496 1.82035e-05 51.3728C1.82035e-05 51.3728 9.10229e-06 51.3728 0.0372898 51.3728Z" transform="translate(605.55 73.7039)" fill="#DCA54D"/>
<path d="M25.6118 1.13772e-06C11.4824 0.0372818 0 11.5197 0 25.6864C0 39.8158 11.4824 51.3355 25.6118 51.3728C25.6118 48.9123 25.6118 2.38597 25.6118 1.13772e-06Z" transform="translate(580.088 73.7412)" fill="#F1BA5A"/>
<path d="M8.76098 38.0636C8.76098 21.8838 21.8465 8.79825 38.0263 8.76096C38.0263 4.84649 38.0263 1.78947 38.0263 0C17.0373 0.0372807 1.82035e-05 17.0746 1.82035e-05 38.0636C1.82035e-05 59.0526 17 76.0899 38.0263 76.1272C38.0263 73.8531 38.0263 70.8706 38.0263 67.3662C21.8465 67.3662 8.76098 54.2434 8.76098 38.0636Z" transform="translate(567.524 61.3268)" fill="#F1BA5A"/>
<path d="M37.2434 29.9737C36.9824 28.7434 36.6469 27.5504 36.2741 26.3947C34.5219 20.9145 31.5395 15.9934 27.6996 11.9298C20.7654 4.58553 10.9605 0 0.0745705 0C0.0372898 0 0.0372625 0 -1.82035e-05 0C-1.82035e-05 1.78947 -1.82035e-05 4.84649 -1.82035e-05 8.76096H0.0372989C16.2171 8.76096 29.3399 21.8838 29.3399 38.0636C29.3399 54.2434 16.2171 67.3662 0.0372989 67.3662H-1.82035e-05C-1.82035e-05 70.8706 -1.82035e-05 73.8531 -1.82035e-05 76.1272C0.0372625 76.1272 0.0372898 76.1272 0.0745705 76.1272C13.0855 76.1272 24.568 69.5658 31.4276 59.6118C34 55.8838 35.9013 51.7083 37.0197 47.1601C37.2807 46.0417 37.5044 44.9232 37.6908 43.8048C37.9891 41.9408 38.1382 40.0022 38.1382 38.0636C38.1382 35.3048 37.8399 32.5833 37.2434 29.9737Z" transform="translate(605.513 61.3268)" fill="#DCA54D"/>
<path d="M0.0372716 15.1732H3.39253V-2.27543e-06H15.1732C17.2609 -2.27543e-06 18.8268 0.0745637 19.9079 0.260967C24.4561 0.93202 27.2522 4.6228 27.2522 9.13377C27.2522 11.8553 26.3948 14.1667 24.7171 16.0307C23.0395 17.8947 19.9452 18.7895 15.5088 18.7895H7.53068V21.5855H25.6118V25.239H7.53068V31.6513H3.35526V25.239H0V21.5855H3.35526V18.7895H0V15.1732H0.0372716ZM7.53068 15.0614H15.546C20.9517 15.0614 22.8904 12.9364 22.8904 9.2829C22.8904 6.59869 21.511 4.62281 19.3114 4.02631C18.6404 3.83991 17.3355 3.76535 15.4342 3.76535H7.49341V15.0614H7.53068Z" transform="translate(593.509 83.4715)" fill="white"/>
</svg>
