<svg width="76" height="55" viewBox="0 0 76 55" fill="none" xmlns="http://www.w3.org/2000/svg">
<path d="M37.9839 4.11883C38.7367 4.47392 39.4855 4.84095 40.2343 5.20598C40.76 5.4636 41.2858 5.72021 41.8105 5.97286C43.2862 6.68403 44.7609 7.39719 46.2366 8.11035C47.7132 8.82451 49.1899 9.53767 50.6666 10.2498C52.3703 11.0704 54.073 11.894 55.7767 12.7166C57.4883 13.5441 59.201 14.3707 60.9097 15.1942L63.8033 16.5927C65.6673 17.4939 67.5343 18.396 69.4112 19.2991C69.6572 19.4165 69.9031 19.5349 70.1501 19.6532C67.9007 20.7424 65.6494 21.8275 63.391 22.9167L61.1397 24.0028V26.5004V26.9142V35.6919V40.2743C58.1425 41.6439 55.1444 43.0215 52.1472 44.3981L52.0965 44.4219C49.9975 45.3867 47.8955 46.3505 45.7945 47.3134C43.6785 48.2831 41.5626 49.2529 39.4566 50.2217L38.6849 50.5768L37.9601 50.91L35.7774 49.9064L35.3871 49.7274L26.2692 45.5449L22.1538 43.658L17.8253 41.6747L14.7794 40.2792V39.1742V30.3964V26.4894L14.7585 23.9839L12.5091 22.8978L10.6113 21.9827C9.0171 21.2108 7.41995 20.439 5.8208 19.6672L8.27329 18.4825L12.8835 16.2545L17.4888 14.0295C20.0578 12.7822 22.6317 11.5389 25.2027 10.2976L27.715 9.08411C30.3805 7.79107 33.0371 6.50698 35.7037 5.22289L37.8913 4.16857L37.9202 4.15464L37.9451 4.14171C37.9581 4.13176 37.971 4.1248 37.9839 4.11883ZM37.977 0C37.8665 0 37.7539 0.00795718 37.6374 0.0238715C37.277 0.0755932 36.9593 0.194951 36.6248 0.358073C36.4704 0.426704 36.3161 0.504286 36.1618 0.580874C35.4329 0.931984 34.703 1.28409 33.9731 1.6352C31.3046 2.92128 28.644 4.20636 25.9754 5.50139C22.569 7.14753 19.1537 8.79268 15.7463 10.4468C12.6744 11.9298 9.61056 13.4128 6.53872 14.8958C4.85693 15.7104 3.18311 16.5161 1.50132 17.3297C1.42365 17.3636 1.34698 17.4073 1.26134 17.4411C-0.420448 18.2558 -0.420448 21.0666 1.26134 21.8812C3.80146 23.1066 6.34157 24.333 8.87272 25.5584C9.51497 25.8678 10.1552 26.1761 10.7945 26.4855C10.7945 27.7875 10.7945 29.0904 10.7945 30.3924C10.7945 33.3157 10.7945 36.2469 10.7945 39.1702C10.7945 39.8475 10.7945 40.5159 10.7945 41.1933C10.7945 42.0338 11.2665 43.0443 12.073 43.4134C14.879 44.6994 17.6849 45.9845 20.4909 47.2706C24.902 49.2937 29.3121 51.3168 33.7232 53.3389C34.6931 53.7845 35.6629 54.2301 36.6317 54.6757C37.1097 54.8936 37.5329 55 37.9551 55C38.3822 55 38.8084 54.8906 39.2913 54.6757C39.3939 54.633 39.4975 54.5813 39.6 54.5295C40.1059 54.2978 40.6037 54.067 41.1105 53.8353C45.3235 51.8977 49.5454 49.9691 53.7593 48.0325C57.0632 46.5157 60.367 44.9978 63.6709 43.4899C63.7306 43.4641 63.7824 43.4382 63.8421 43.4124C64.6397 43.0433 65.1206 42.0318 65.1206 41.1923C65.1206 39.3582 65.1206 37.5241 65.1206 35.6889C65.1206 32.7657 65.1206 29.8344 65.1206 26.9112C65.1206 26.7729 65.1206 26.6357 65.1206 26.4974C68.07 25.0751 71.0183 23.6527 73.9677 22.2224C74.2077 22.111 74.4397 21.9907 74.6797 21.8792C75.7879 21.3491 76.225 19.7905 75.762 18.6864C75.5758 18.1513 75.2273 17.6838 74.6797 17.4222C73.4957 16.8483 72.3118 16.2734 71.1269 15.7075C68.295 14.3448 65.4632 12.9732 62.6403 11.6105C59.2249 9.96437 55.8095 8.31028 52.3942 6.66413C49.4418 5.24079 46.4905 3.8095 43.5381 2.38715C42.1312 1.7098 40.7322 1.00658 39.3162 0.347132C38.8741 0.14124 38.4509 0 37.977 0Z" fill="#D6D7DA"/>
<path d="M2.66757 -9.25804e-07C2.6367 -9.25804e-07 2.60583 0.000994525 2.57397 0.00198917C1.17497 0.061668 2.24866e-06 1.1339 2.24866e-06 2.57315C2.24866e-06 6.28518 2.24866e-06 9.9962 2.24866e-06 13.7082C2.24866e-06 14.2314 2.24866e-06 14.7536 2.24866e-06 15.2768C2.24866e-06 16.5917 1.13115 17.8499 2.48037 17.8499C2.51124 17.8499 2.54211 17.8489 2.57397 17.8479C3.97297 17.7883 5.14794 16.716 5.14794 15.2768C5.14794 11.5648 5.14794 7.85373 5.14794 4.14171C5.14794 3.61852 5.14794 3.09634 5.14794 2.57315C5.14794 1.25823 4.01579 -9.25804e-07 2.66757 -9.25804e-07Z" transform="translate(70.8042 28.0004)" fill="#D6D7DA"/>
<path d="M2.57397 0.00206491C1.17497 0.0617437 2.24866e-06 1.13397 2.24866e-06 2.57323C2.24866e-06 6.28525 2.24866e-06 9.99628 2.24866e-06 13.7083C2.24866e-06 14.2315 2.24866e-06 14.7537 2.24866e-06 15.2769C2.24866e-06 16.6226 1.18393 17.9087 2.57397 17.848C3.97297 17.7883 5.14794 16.7161 5.14794 15.2769C5.14794 11.5648 5.14794 7.85381 5.14794 4.14178C5.14794 3.6186 5.14794 3.09641 5.14794 2.57323C5.14794 1.22747 3.96401 -0.0586086 2.57397 0.00206491Z" transform="translate(70.8042 28.0002)" fill="#D6D7DA"/>
<path d="M37.9822 4.11883C38.735 4.47392 39.4838 4.84095 40.2326 5.20598C40.7583 5.4636 41.284 5.72021 41.8088 5.97286C43.2845 6.68403 44.7592 7.39719 46.2348 8.11035C47.7115 8.82451 49.1882 9.53767 50.6648 10.2498C52.3685 11.0704 54.0712 11.894 55.7749 12.7166C57.4866 13.5441 59.1993 14.3707 60.9079 15.1942L63.8015 16.5927C65.6656 17.4938 67.5325 18.396 69.4095 19.2991C69.6435 19.4105 69.8775 19.5229 70.1115 19.6353L67.6719 20.814L63.0607 23.042L58.4555 25.267C55.8855 26.5153 53.3105 27.7586 50.7375 28.9999L48.2283 30.2114C45.5627 31.5044 42.9061 32.7885 40.2395 34.0726L38.0519 35.127L38.024 35.1399L37.9981 35.1528C37.9852 35.1598 37.9722 35.1657 37.9583 35.1727C37.2055 34.8176 36.4557 34.4506 35.708 34.0846C35.1822 33.8279 34.6565 33.5703 34.1327 33.3187C32.656 32.6065 31.1784 31.8924 29.7017 31.1782C28.227 30.465 26.7523 29.7519 25.2767 29.0407C23.573 28.2201 21.8703 27.3966 20.1666 26.574C18.4549 25.7464 16.7422 24.9199 15.0336 24.0963L12.141 22.6998C10.277 21.7987 8.40995 20.8965 6.533 19.9934C6.299 19.882 6.065 19.7696 5.83101 19.6572L8.27055 18.4785L12.8808 16.2505L17.4861 14.0255C20.055 12.7782 22.629 11.5349 25.2 10.2936L27.7122 9.08013C30.3778 7.78709 33.0344 6.503 35.701 5.21891L37.8886 4.16459L37.9175 4.15066L37.9424 4.13773C37.9563 4.13176 37.9693 4.1248 37.9822 4.11883ZM37.9752 -1.21535e-09C37.8647 -1.21535e-09 37.7522 0.00795717 37.6357 0.0238715C37.2752 0.0755932 36.9576 0.194951 36.623 0.358073C36.4687 0.426704 36.3144 0.504286 36.16 0.580874C35.4311 0.931984 34.7013 1.28409 33.9714 1.6352C31.3028 2.92128 28.6422 4.20636 25.9737 5.50139C22.5673 7.14753 19.1519 8.79268 15.7445 10.4468C12.6727 11.9298 9.60882 13.4128 6.53698 14.8958C4.85519 15.7104 3.18136 16.5161 1.49957 17.3297C1.42191 17.3636 1.34523 17.4073 1.2596 17.4411C0.423186 17.846 0.00497866 18.7451 0 19.6463H0.00199146C0.000995732 19.9795 0.055761 20.3077 0.180228 20.6041C0.366429 21.1392 0.714936 21.6067 1.26259 21.8683C2.44651 22.4422 3.63044 23.0171 4.81536 23.5831C7.64722 24.9457 10.4791 26.3174 13.302 27.68C16.7173 29.3262 20.1327 30.9803 23.5481 32.6264C26.5004 34.0498 29.4518 35.481 32.4041 36.9034C33.8111 37.5807 35.2101 38.284 36.626 38.9434C37.0711 39.1523 37.4943 39.2925 37.9683 39.2925C38.0788 39.2925 38.1913 39.2846 38.3078 39.2687C38.6683 39.2169 38.9859 39.0976 39.3205 38.9345C39.4748 38.8658 39.6291 38.7882 39.7835 38.7117C40.5124 38.3605 41.2422 38.0084 41.9711 37.6573C44.6397 36.3713 47.3003 35.0862 49.9688 33.7911C53.3752 32.145 56.7906 30.4999 60.198 28.8458C63.2698 27.3627 66.3337 25.8797 69.4055 24.3967C71.0873 23.5821 72.7611 22.7764 74.4429 21.9628C74.5206 21.929 74.5973 21.8852 74.6829 21.8514C75.5193 21.4466 75.9375 20.5474 75.9425 19.6463H75.9405C75.9415 19.3131 75.8867 18.9848 75.7623 18.6884C75.5761 18.1533 75.2276 17.6858 74.6799 17.4242C73.496 16.8503 72.3121 16.2754 71.1271 15.7095C68.2953 14.3468 65.4634 12.9752 62.6405 11.6125C59.2252 9.96636 55.8098 8.31226 52.3944 6.66612C49.4421 5.24278 46.4907 3.81149 43.5384 2.38914C42.1314 1.71179 40.7324 1.00857 39.3165 0.349121C38.8714 0.14124 38.4492 -1.21535e-09 37.9752 -1.21535e-09Z" transform="translate(0.0576172 0.0379639)" fill="#D6D7DA"/>
</svg>
