<svg width="100" height="100" viewBox="0 0 100 100" fill="none" xmlns="http://www.w3.org/2000/svg">
<path d="M50 100C77.6142 100 100 77.6142 100 50C100 22.3858 77.6142 0 50 0C22.3858 0 0 22.3858 0 50C0 77.6142 22.3858 100 50 100Z" fill="#EDEDED"/>
<path d="M54.958 50.001L47.185 42.228C49.905 37.344 49.204 31.052 45.06 26.908C42.963 24.811 40.249 23.528 37.32 23.223V10.933L36.977 10.591C33.981 7.606 29.689 3.327 26.705 0.342L26.363 8.8501e-07H3.499C1.57 8.8501e-07 -6.2561e-07 1.569 -6.2561e-07 3.499V43.15C-6.2561e-07 45.079 1.569 46.649 3.499 46.649H28.879C31.054 48.104 33.53 48.827 35.996 48.827C38.161 48.827 40.312 48.265 42.242 47.182L50.01 54.95C50.692 55.632 51.588 55.973 52.484 55.973C53.38 55.973 54.276 55.632 54.958 54.95V54.949C55.619 54.288 55.983 53.41 55.983 52.475C55.983 51.54 55.619 50.662 54.958 50.001ZM26.828 3.763C28.587 5.52 30.562 7.49 32.402 9.325H27.994C27.351 9.325 26.828 8.802 26.828 8.159V3.763ZM3.499 44.315C2.856 44.315 2.333 43.792 2.333 43.149V3.498C2.333 2.855 2.856 2.332 3.499 2.332H24.496V8.159C24.496 10.088 26.065 11.658 27.995 11.658H34.743C34.823 11.737 34.909 11.823 34.987 11.901V23.188C34.978 23.189 34.968 23.19 34.959 23.191C31.885 23.428 29.101 24.726 26.919 26.908C22.178 31.661 21.95 39.24 26.217 44.278H26.207C26.217 44.29 26.224 44.303 26.234 44.315H3.499ZM29.897 44.528C29.429 44.199 28.982 43.822 28.57 43.41C24.485 39.315 24.485 32.65 28.569 28.556C30.556 26.569 33.196 25.479 36.009 25.479C36.051 25.479 36.092 25.48 36.134 25.48C38.887 25.524 41.471 26.616 43.41 28.556C47.5 32.646 47.504 39.298 43.423 43.394L43.393 43.424C39.755 47.049 34.085 47.515 29.897 44.528ZM53.309 53.299C52.853 53.754 52.113 53.753 51.659 53.3L44.238 45.879L45.044 45.072C45.049 45.067 45.054 45.063 45.059 45.059C45.064 45.055 45.068 45.049 45.072 45.044L45.887 44.229L53.309 51.652C53.529 51.872 53.651 52.164 53.651 52.476C53.651 52.788 53.53 53.079 53.309 53.299Z" transform="translate(26.8311 21.6721)" fill="#323648"/>
<path d="M1.166 2.332H13.606C14.25 2.332 14.772 1.81 14.772 1.166C14.772 0.521999 14.25 -1.43433e-06 13.606 -1.43433e-06H1.166C0.521999 -1.43433e-06 -1.25122e-06 0.521999 -1.25122e-06 1.166C-1.25122e-06 1.81 0.521999 2.332 1.166 2.332Z" transform="translate(32.6621 36.8291)" fill="#323648"/>
<path d="M1.166 2.332H19.825C20.469 2.332 20.991 1.81 20.991 1.166C20.991 0.522 20.469 -1.52588e-07 19.825 -1.52588e-07H1.166C0.521999 -1.52588e-07 -1.25122e-06 0.522 -1.25122e-06 1.166C-1.25122e-06 1.81 0.521999 2.332 1.166 2.332Z" transform="translate(32.6621 42.6602)" fill="#323648"/>
<path d="M13.606 1.67847e-06H1.166C0.521999 1.67847e-06 -1.25122e-06 0.521998 -1.25122e-06 1.166C-1.25122e-06 1.81 0.521999 2.332 1.166 2.332H13.606C14.25 2.332 14.772 1.81 14.772 1.166C14.772 0.521998 14.25 1.67847e-06 13.606 1.67847e-06Z" transform="translate(32.6621 48.4902)" fill="#323648"/>
<path d="M11.533 -8.54492e-07H1.166C0.521999 -8.54492e-07 -1.25122e-06 0.522 -1.25122e-06 1.166C-1.25122e-06 1.81 0.521999 2.332 1.166 2.332H11.533C12.177 2.332 12.699 1.81 12.699 1.166C12.699 0.522 12.177 -8.54492e-07 11.533 -8.54492e-07Z" transform="translate(32.6621 54.321)" fill="#323648"/>
</svg>
