<svg width="275" height="36" viewBox="0 0 275 36" fill="none" xmlns="http://www.w3.org/2000/svg">
<path d="M11.01 23.42C13.65 23.42 15.81 22.61 17.49 20.99C19.2 19.37 20.04 17.09 20.04 14.18V2H15.72V14.33C15.72 17.66 13.8 19.37 11.01 19.37C8.25 19.37 6.33 17.66 6.33 14.33V2H2.04V14.18C2.04 17.09 2.88 19.37 4.56 20.99C6.24 22.61 8.4 23.42 11.01 23.42ZM22.9605 5.87H29.5905V23H33.9105V5.87H40.5705V2H22.9605V5.87ZM52.9502 23.42C55.2302 23.42 57.2102 22.91 58.9202 21.89V17.54C57.3602 18.77 55.4402 19.37 53.1602 19.37C51.0902 19.37 49.3802 18.74 48.0302 17.45C46.6802 16.16 45.9902 14.51 45.9902 12.5C45.9902 10.49 46.6502 8.87 47.9702 7.58C49.3202 6.29 50.9702 5.63 52.9802 5.63C55.0502 5.63 56.8802 6.17 58.5002 7.25V2.9C56.8502 2.03 55.0202 1.58 52.9502 1.58C49.6802 1.58 46.9502 2.6 44.7902 4.64C42.6602 6.68 41.5802 9.29 41.5802 12.5C41.5802 15.68 42.6602 18.29 44.8202 20.36C46.9802 22.4 49.6802 23.42 52.9502 23.42Z" transform="translate(-2 5)" fill="#323648"/>
<path d="M8.91 12V10.995H2.595V6.87H7.59V5.865H2.595V2.505H8.685V1.5H1.485V12H8.91ZM10.9597 14.145V12H17.7697V14.145H18.8197V11.055H17.4697V4.755H12.0847L12.0697 5.775C12.0547 8.22 11.6497 9.99 10.8397 11.055H9.92473V14.145H10.9597ZM12.0397 11.055C12.7447 9.93 13.0897 8.295 13.0897 6.135V5.7H16.3897V11.055H12.0397ZM21.6013 12L26.2363 6.36V12H27.3163V4.755H26.3113L21.6763 10.41V4.755H20.5963V12H21.6013ZM30.9488 12V8.775H35.4037V12H36.4838V4.755H35.4037V7.8H30.9488V4.755H29.8688V12H30.9488ZM47.3187 12V4.755H46.2387V12H47.3187ZM42.3237 12C44.0487 12 45.0387 11.01 45.0387 9.585C45.0387 8.13 43.9737 7.185 42.2787 7.185H40.1187V4.755H39.0387V12H42.3237ZM40.1187 8.13H42.1287C43.2687 8.13 43.9437 8.655 43.9437 9.6C43.9437 10.515 43.2687 11.055 42.1287 11.055H40.1187V8.13ZM50.8689 12L55.5039 6.36V12H56.5839V4.755H55.5789L50.9439 10.41V4.755H49.8639V12H50.8689ZM53.2389 3.525C54.6189 3.525 55.6389 2.625 55.6539 1.245H54.7089C54.6939 2.07 54.1089 2.655 53.2239 2.655C52.3239 2.655 51.7389 2.07 51.7389 1.245H50.7789C50.7939 2.625 51.7839 3.525 53.2389 3.525ZM64.1714 12V8.775H68.6264V12H69.7064V4.755H68.6264V7.8H64.1714V4.755H63.0914V12H64.1714ZM74.7063 11.205C73.5813 11.205 72.7263 10.695 72.7263 9.72C72.7263 8.82 73.5513 8.265 74.8713 8.265C75.6963 8.265 76.4913 8.505 77.2263 8.985V9.99C76.7013 10.65 75.7413 11.205 74.7063 11.205ZM74.4063 12.18C75.6213 12.18 76.5963 11.76 77.3313 10.905C77.4513 11.685 77.9913 12.06 78.6963 12.06C79.0263 12.06 79.2663 12 79.4163 11.895V11.055C79.2963 11.115 79.1613 11.145 78.9963 11.145C78.5763 11.145 78.3063 10.8 78.3063 10.245V7.26C78.3063 5.505 77.0013 4.575 75.0663 4.575C74.0313 4.575 73.1763 4.8 72.4713 5.235V6.285C73.2063 5.79 73.9863 5.55 74.8413 5.55C76.4313 5.55 77.2263 6.15 77.2263 7.365V8.085C76.4313 7.62 75.5613 7.38 74.6163 7.38C73.7613 7.38 73.0563 7.59 72.4863 8.025C71.9313 8.46 71.6463 9.045 71.6463 9.78C71.6463 10.53 71.9163 11.115 72.4413 11.55C72.9813 11.97 73.6413 12.18 74.4063 12.18ZM80.2076 12C80.2826 12.015 80.3876 12.015 80.5226 12.015C81.6626 12.075 82.3676 11.295 82.6976 10.425C82.9526 9.84 83.0726 8.925 83.1326 8.265C83.1626 7.935 83.1776 7.545 83.1926 7.095L83.2376 5.7H86.5376V12H87.6176V4.755H82.2026L82.1426 7.065C82.0976 8.25 82.0226 9.03 81.7826 9.825C81.5576 10.605 81.1376 11.025 80.4926 11.025C80.3726 11.025 80.2826 11.025 80.2076 11.01V12ZM90.7317 5.7C89.9967 6.435 89.6367 7.335 89.6367 8.385C89.6367 9.435 89.9967 10.335 90.7317 11.07C91.4667 11.805 92.3967 12.18 93.5517 12.18C94.7067 12.18 95.6367 11.805 96.3717 11.07C97.1067 10.335 97.4667 9.435 97.4667 8.385C97.4667 7.335 97.1067 6.435 96.3717 5.7C95.6367 4.95 94.7067 4.575 93.5517 4.575C92.3967 4.575 91.4667 4.95 90.7317 5.7ZM96.3567 8.385C96.3567 9.18 96.0867 9.855 95.5617 10.395C95.0367 10.935 94.3617 11.205 93.5517 11.205C92.7417 11.205 92.0667 10.935 91.5417 10.395C91.0167 9.855 90.7467 9.18 90.7467 8.385C90.7467 7.575 91.0167 6.9 91.5417 6.36C92.0667 5.82 92.7417 5.55 93.5517 5.55C94.3617 5.55 95.0367 5.82 95.5617 6.36C96.0867 6.9 96.3567 7.575 96.3567 8.385ZM100.558 12V5.7H104.923V4.755H99.4781V12H100.558ZM107.021 5.7C106.286 6.435 105.926 7.335 105.926 8.385C105.926 9.435 106.286 10.335 107.021 11.07C107.756 11.805 108.686 12.18 109.841 12.18C110.996 12.18 111.926 11.805 112.661 11.07C113.396 10.335 113.756 9.435 113.756 8.385C113.756 7.335 113.396 6.435 112.661 5.7C111.926 4.95 110.996 4.575 109.841 4.575C108.686 4.575 107.756 4.95 107.021 5.7ZM112.646 8.385C112.646 9.18 112.376 9.855 111.851 10.395C111.326 10.935 110.651 11.205 109.841 11.205C109.031 11.205 108.356 10.935 107.831 10.395C107.306 9.855 107.036 9.18 107.036 8.385C107.036 7.575 107.306 6.9 107.831 6.36C108.356 5.82 109.031 5.55 109.841 5.55C110.651 5.55 111.326 5.82 111.851 6.36C112.376 6.9 112.646 7.575 112.646 8.385ZM119.832 12C121.377 12 122.247 11.25 122.247 10.05C122.247 9.075 121.782 8.46 120.867 8.19C121.467 7.905 121.767 7.38 121.767 6.6C121.767 5.505 120.972 4.755 119.577 4.755H115.767V12H119.832ZM116.847 8.73H119.607C120.582 8.73 121.152 9.165 121.152 9.9C121.152 10.635 120.582 11.055 119.607 11.055H116.847V8.73ZM116.847 5.7H119.277C120.177 5.7 120.702 6.06 120.702 6.765C120.702 7.44 120.177 7.83 119.277 7.83H116.847V5.7ZM132.704 12V4.755H131.624V12H132.704ZM127.709 12C129.434 12 130.424 11.01 130.424 9.585C130.424 8.13 129.359 7.185 127.664 7.185H125.504V4.755H124.424V12H127.709ZM125.504 8.13H127.514C128.654 8.13 129.329 8.655 129.329 9.6C129.329 10.515 128.654 11.055 127.514 11.055H125.504V8.13ZM136.255 12L140.89 6.36V12H141.97V4.755H140.965L136.33 10.41V4.755H135.25V12H136.255ZM138.625 3.525C140.005 3.525 141.025 2.625 141.04 1.245H140.095C140.08 2.07 139.495 2.655 138.61 2.655C137.71 2.655 137.125 2.07 137.125 1.245H136.165C136.18 2.625 137.17 3.525 138.625 3.525ZM156.277 14.145V11.055H154.942V4.755H153.862V11.055H149.557V4.755H148.477V12H155.242V14.145H156.277ZM161.508 12.18C162.603 12.18 163.443 11.955 164.043 11.49V10.53C163.338 10.98 162.558 11.205 161.718 11.205C159.978 11.205 158.748 10.2 158.628 8.64H164.583V8.34C164.583 6.705 163.623 4.575 161.193 4.575C160.113 4.575 159.228 4.935 158.538 5.67C157.863 6.39 157.518 7.29 157.518 8.385C157.518 9.495 157.893 10.41 158.658 11.115C159.423 11.82 160.383 12.18 161.508 12.18ZM158.643 7.755C158.688 7.155 158.943 6.645 159.378 6.21C159.828 5.775 160.413 5.55 161.148 5.55C161.913 5.55 162.483 5.775 162.858 6.24C163.248 6.69 163.458 7.2 163.488 7.755H158.643ZM167.692 12V8.775H172.147V12H173.227V4.755H172.147V7.8H167.692V4.755H166.612V12H167.692ZM178.602 12V5.7H181.227V4.755H174.897V5.7H177.522V12H178.602ZM183.966 10.845C184.641 11.73 185.571 12.18 186.771 12.18C187.836 12.18 188.721 11.805 189.396 11.07C190.071 10.335 190.416 9.435 190.416 8.37C190.416 7.32 190.071 6.42 189.396 5.685C188.721 4.95 187.836 4.575 186.771 4.575C185.571 4.575 184.641 5.025 183.966 5.91V4.755H182.886V15H183.966V10.845ZM183.966 7.185C184.401 6.24 185.421 5.55 186.516 5.55C187.311 5.55 187.986 5.82 188.511 6.36C189.036 6.9 189.306 7.575 189.306 8.37C189.306 9.165 189.036 9.84 188.511 10.395C187.986 10.935 187.311 11.205 186.516 11.205C185.421 11.205 184.386 10.53 183.966 9.57V7.185Z" transform="translate(84 11)" fill="#323648"/>
<rect width="1" height="36" transform="translate(71)" fill="#323648"/>
</svg>
