<svg width="353" height="39" viewBox="0 0 353 39" fill="none" xmlns="http://www.w3.org/2000/svg">
<path d="M38.7404 19.3269C38.7404 30 30.0672 38.6538 19.3702 38.6538C8.67322 38.6538 3.52914e-06 30 3.52914e-06 19.3269C3.52914e-06 8.65385 8.67322 0 19.3702 0C30.0672 0 38.7404 8.65385 38.7404 19.3269Z" transform="translate(0 0.346191)" fill="#675CA8"/>
<path d="M3.93186 20.7692V14.3077H6.70729L11.5643 20.7692H16.5369L10.697 12.9808C12.5473 11.6538 13.7037 9.57692 13.7037 7.15384C13.7037 3.23077 10.4657 0 6.53382 0H-3.52914e-06V20.7692H3.93186ZM3.93186 3.92307H6.53382C8.32629 3.92307 9.77183 5.36538 9.77183 7.15384C9.77183 8.9423 8.32629 10.3846 6.53382 10.3846H3.93186V3.92307Z" transform="translate(12.894 9.28857)" fill="white"/>
<path d="M17.1152 27.0577C16.7682 27.8077 15.9587 28.9038 14.3397 28.9038C13.2989 28.9038 11.333 28.2115 11.333 25.5577V13.5577H21.1048V6.92307H11.333V-7.04252e-06H4.68355V6.92307H3.52914e-06V13.5577H4.68355V25.5577C4.68355 31.7885 9.54053 35.4808 14.2819 35.4808C19.1389 35.4808 22.3191 32.1923 23.5333 28.7308L17.1152 27.0577Z" transform="translate(152.359 2.24988)" fill="black"/>
<path d="M19.5436 0.692304V1.90385C17.6355 0.692308 15.4383 7.04252e-06 13.0677 7.04252e-06C5.83997 7.04252e-06 0 6.57692 0 14.5962C0 22.6731 5.83997 29.1923 13.0677 29.1923C15.4383 29.1923 17.6355 28.5 19.5436 27.2885V28.5H26.1931V0.634608H19.5436V0.692304ZM13.0677 22.6154C9.54054 22.6154 6.64947 19.0385 6.64947 14.5962C6.64947 10.2115 9.54054 6.57693 13.0677 6.57693C16.6526 6.57693 19.5436 10.1538 19.5436 14.5962C19.5436 19.0385 16.6526 22.6154 13.0677 22.6154Z" transform="translate(68.1714 8.53845)" fill="black"/>
<path d="M11.2174 33L0.462586 6.28846C0.289121 5.94231 0.231279 5.59616 0.115636 5.19231C0.0578144 4.78846 -1.41166e-05 4.38461 -1.41166e-05 3.98077C-1.41166e-05 2.82692 0.404736 1.90385 1.15641 1.15385C1.96592 0.40385 2.9489 3.52126e-06 4.10533 3.52126e-06C4.97265 3.52126e-06 5.66652 0.288458 6.24473 0.749996C6.82295 1.26923 7.28549 2.13462 7.80588 3.40385L15.0914 23.0192L22.1456 3.69231C22.6082 2.30769 23.1286 1.32692 23.7646 0.807692C24.3428 0.288462 25.1523 3.52126e-06 26.1353 3.52126e-06C27.3495 3.52126e-06 28.2747 0.346147 28.9686 0.980762C29.6624 1.61538 30.0093 2.53846 30.0093 3.69231C30.0093 4.15385 29.9515 4.61538 29.8937 5.07692C29.778 5.53846 29.6624 5.99999 29.4889 6.46153L19.0811 32.6538C18.6185 33.8077 18.0403 34.6731 17.4621 35.1923C16.826 35.7115 16.0165 35.9423 15.0336 35.9423C14.1084 35.9423 13.3568 35.7115 12.7785 35.25C12.2003 34.8462 11.6799 34.0385 11.2174 33Z" transform="translate(238.225 1.55774)" fill="#675CA8"/>
<path d="M7.28552 20.0192C7.28552 21.8077 6.99641 23.1923 6.4182 24.0577C5.83998 24.9231 4.91483 25.3846 3.70058 25.3846C2.42851 25.3846 1.50337 24.9231 0.925157 24.0577C0.289121 23.1923 -7.05828e-06 21.8654 -7.05828e-06 20.0192V5.3077C-7.05828e-06 3.51924 0.289121 2.1923 0.925157 1.32692C1.50337 0.461531 2.48633 0 3.70058 0C4.91483 0 5.83998 0.461531 6.4182 1.32692C6.99641 2.1923 7.28552 3.51924 7.28552 5.3077V20.0192Z" transform="translate(270.431 12.1731)" fill="#675CA8"/>
<path d="M7.80588 10.7308C8.6732 9.98077 9.59836 9.46154 10.6391 9.05769C11.6799 8.71154 12.7785 8.48077 13.9928 8.48077C17.3464 8.48077 20.1797 9.80769 22.4925 12.4615C24.8054 15.1154 25.9618 18.4615 25.9618 22.4423C25.9618 26.1923 24.8054 29.4231 22.4347 32.0769C20.0641 34.7308 17.2308 36.0577 13.9928 36.0577C12.7207 36.0577 11.5065 35.8269 10.4657 35.3654C9.36708 34.9038 8.44195 34.2692 7.69027 33.4039C7.2277 34.2115 6.64947 34.8462 6.01343 35.3077C5.3774 35.7115 4.68355 35.9423 3.93187 35.9423C2.60198 35.9423 1.61899 35.4808 0.982958 34.5577C0.346922 33.6346 -1.41166e-05 32.1923 -1.41166e-05 30.2885V5.65385C-1.41166e-05 3.75 0.2891 2.3077 0.982958 1.38462C1.61899 0.461545 2.60198 -7.04252e-06 3.93187 -7.04252e-06C5.26177 -7.04252e-06 6.24472 0.461545 6.88075 1.38462C7.51679 2.3077 7.86373 3.75 7.86373 5.65385V10.7308H7.80588ZM7.22767 22.3269C7.22767 24.4615 7.74807 26.1923 8.78885 27.4615C9.82964 28.7308 11.1595 29.4231 12.8364 29.4231C14.4554 29.4231 15.7853 28.7885 16.8839 27.4615C17.9246 26.1346 18.445 24.4615 18.445 22.3269C18.445 20.1923 17.9246 18.4615 16.8839 17.1346C15.8431 15.8077 14.5132 15.1154 12.8364 15.1154C11.1595 15.1154 9.82964 15.75 8.78885 17.0769C7.74807 18.4615 7.22767 20.1923 7.22767 22.3269Z" transform="translate(281.013 1.67322)" fill="#675CA8"/>
<path d="M7.57462 16.0385C7.74808 17.4808 8.78885 18.6346 9.82963 19.4423C10.8704 20.25 12.2003 20.6539 13.935 20.6539C15.3805 20.6539 17.0573 20.25 18.8498 19.3846C20.6423 18.5192 21.7409 18.1154 22.2034 18.1154C23.1286 18.1154 23.8803 18.4038 24.4585 18.9808C25.0367 19.5577 25.3258 20.25 25.3258 21.1731C25.3258 22.8462 24.1694 24.3461 21.7987 25.6731C19.4858 27 16.7104 27.6923 13.5302 27.6923C9.65618 27.6923 6.476 26.3654 3.87403 23.7692C1.27207 21.1731 -1.41166e-05 17.8846 -1.41166e-05 13.9038C-1.41166e-05 9.92308 1.27206 6.63461 3.75838 3.98076C6.2447 1.32692 9.36707 -3.52126e-06 13.1255 -3.52126e-06C16.7104 -3.52126e-06 19.7749 1.26923 22.2034 3.75C24.6319 6.23077 25.8462 9.28847 25.8462 12.8654C25.8462 14.0192 25.5571 14.8269 25.0367 15.3462C24.5163 15.8077 23.4755 16.0385 21.9721 16.0385H7.57462V16.0385ZM7.22767 11.4808H18.7342C18.6185 10.0385 18.0403 8.53846 16.9995 7.55769C15.9587 6.57692 14.6867 6.11538 13.1833 6.11538C11.7378 6.11538 10.35 6.57692 9.30926 7.5C8.21065 8.42307 7.5746 9.92307 7.22767 11.4808Z" transform="translate(308.188 10.0963)" fill="#675CA8"/>
<path d="M0 21.4038V5.76923C0 3.86538 0.346936 2.42308 0.982972 1.5C1.61901 0.576927 2.60196 0.115392 3.93185 0.115392C4.74135 0.115392 5.43523 0.346147 6.01345 0.749993C6.64948 1.15384 7.16987 1.78846 7.63244 2.59615C8.44194 1.73077 9.30924 1.09616 10.1766 0.634619C11.1017 0.17308 11.969 0 12.8942 0C13.9928 0 14.9179 0.403846 15.6696 1.15385C16.4791 1.90385 16.826 2.82693 16.826 3.86539C16.826 5.42308 15.3805 6.75 12.5473 7.78846C11.5065 8.13461 10.7548 8.48077 10.2344 8.71154C9.25144 9.17308 8.61539 9.6923 8.26846 10.2692C7.92153 10.8461 7.8059 11.8846 7.8059 13.3846V21.5192C7.8059 23.4231 7.45896 24.8654 6.82292 25.7885C6.18689 26.7115 5.20394 27.1731 3.87404 27.1731C2.54415 27.1731 1.56117 26.7115 0.925129 25.7885C0.346915 24.75 0 23.3077 0 21.4038Z" transform="translate(336.174 10.4424)" fill="#675CA8"/>
<path d="M-7.05828e-06 4.09616C-7.05828e-06 3.00001 0.404764 2.01924 1.21426 1.21155C2.02377 0.403853 3.00673 3.52126e-06 4.10534 3.52126e-06C5.20394 3.52126e-06 6.18689 0.403853 6.93857 1.21155C7.74807 2.01924 8.15284 2.94231 8.15284 4.09616C8.15284 5.25001 7.74809 6.17308 6.99641 6.98078C6.18691 7.78847 5.26177 8.13462 4.10534 8.13462C2.94891 8.13462 1.96592 7.73078 1.15642 6.98078C0.404743 6.17308 -7.05828e-06 5.25001 -7.05828e-06 4.09616Z" transform="translate(270.142 1.55786)" fill="#675CA8"/>
<path d="M17.7512 0.0576888V16.3846C17.7512 19.4423 15.2649 21.9231 12.2003 21.9231C9.13579 21.9231 6.64947 19.4423 6.64947 16.3846V0.0576888H0V16.3846C0 23.0769 5.49304 28.5577 12.2003 28.5577C14.2241 28.5577 16.0744 28.0385 17.7512 27.1731V27.8654H24.4007V-7.04252e-06H17.7512V0.0576888Z" transform="translate(125.704 9.17297)" fill="black"/>
<path d="M12.2003 7.04252e-06C10.1766 7.04252e-06 8.3263 0.519234 6.64947 1.38462V0.692304H7.05828e-06V28.5577H6.64947V12.2308C6.64947 9.17307 9.13578 6.6923 12.2003 6.6923C15.2649 6.6923 17.7512 9.17307 17.7512 12.2308V28.5577H24.4007V12.2308C24.4007 5.48076 18.9076 7.04252e-06 12.2003 7.04252e-06Z" transform="translate(205.324 8.53845)" fill="black"/>
<path d="M26.1353 14.6538C26.1353 6.57692 20.2953 3.52126e-06 13.0676 3.52126e-06C5.72432 3.52126e-06 -3.52914e-06 6.40384 -3.52914e-06 14.6538C-3.52914e-06 23.25 7.34331 29.3077 13.9928 29.3077C17.3464 29.3077 21.9143 28.1538 25.4993 23.0769L19.7171 19.7308C14.8023 25.6731 8.03717 21.6346 7.34331 16.6154H26.0197C26.0775 15.9808 26.1353 15.2885 26.1353 14.6538ZM18.6763 10.6731H7.5168C8.73105 5.30769 17.4621 4.15385 18.6763 10.6731Z" transform="translate(176.529 8.48083)" fill="black"/>
<path d="M13.0098 22.2692L26.0775 9.23076H16.7104L6.59165 19.3269V-3.52126e-06H3.52914e-06V37.0385H6.59165V25.2692L18.445 37.0385H27.8121L13.0098 22.2692Z" transform="translate(98.2964)" fill="black"/>
<path d="M6.64946 34.7885V24H11.333L19.428 34.7885H27.6965L17.9246 21.75C20.9892 19.5577 22.9551 15.9808 22.9551 12C22.9551 5.36539 17.5777 -7.04252e-06 10.9283 -7.04252e-06H-7.05828e-06V34.7885H6.64946ZM6.64946 6.63461H10.9861C13.935 6.63461 16.3635 9.05769 16.3635 12C16.3635 15 13.935 17.3654 10.9861 17.3654H6.64946V6.63461Z" transform="translate(42.6143 2.24988)" fill="black"/>
</svg>
